<?xml version="1.0" encoding="us-ascii" standalone="no"?><svg xmlns="http://www.w3.org/2000/svg" xmlns:xlink="http://www.w3.org/1999/xlink" contentStyleType="text/css" height="1724px" preserveAspectRatio="none" style="width:2235px;height:1724px;background:#FFFFFF;" version="1.1" viewBox="0 0 2235 1724" width="2235px" zoomAndPan="magnify"><defs/><g><line style="stroke:#181818;stroke-width:0.5;stroke-dasharray:5.0,5.0;" x1="185" x2="185" y1="83.6211" y2="1641.3359"/><line style="stroke:#181818;stroke-width:0.5;stroke-dasharray:5.0,5.0;" x1="442.5" x2="442.5" y1="83.6211" y2="1641.3359"/><line style="stroke:#181818;stroke-width:0.5;stroke-dasharray:5.0,5.0;" x1="584.5" x2="584.5" y1="83.6211" y2="1641.3359"/><line style="stroke:#181818;stroke-width:0.5;stroke-dasharray:5.0,5.0;" x1="829.5" x2="829.5" y1="83.6211" y2="1641.3359"/><line style="stroke:#181818;stroke-width:0.5;stroke-dasharray:5.0,5.0;" x1="931.5" x2="931.5" y1="83.6211" y2="1641.3359"/><line style="stroke:#181818;stroke-width:0.5;stroke-dasharray:5.0,5.0;" x1="1246.5" x2="1246.5" y1="83.6211" y2="1641.3359"/><line style="stroke:#181818;stroke-width:0.5;stroke-dasharray:5.0,5.0;" x1="1367.5" x2="1367.5" y1="83.6211" y2="1641.3359"/><line style="stroke:#181818;stroke-width:0.5;stroke-dasharray:5.0,5.0;" x1="1521.5" x2="1521.5" y1="83.6211" y2="1641.3359"/><line style="stroke:#181818;stroke-width:0.5;stroke-dasharray:5.0,5.0;" x1="1699.5" x2="1699.5" y1="83.6211" y2="1641.3359"/><line style="stroke:#181818;stroke-width:0.5;stroke-dasharray:5.0,5.0;" x1="1834.5" x2="1834.5" y1="83.6211" y2="1641.3359"/><line style="stroke:#181818;stroke-width:0.5;stroke-dasharray:5.0,5.0;" x1="2058.5" x2="2058.5" y1="83.6211" y2="1641.3359"/><line style="stroke:#181818;stroke-width:0.5;stroke-dasharray:5.0,5.0;" x1="2178.5" x2="2178.5" y1="83.6211" y2="1641.3359"/><text fill="#000000" font-family="sans-serif" font-size="14" lengthAdjust="spacing" textLength="33" x="166" y="80.1074">Actor</text><ellipse cx="185.5" cy="13.5" fill="#E2E2F0" rx="8" ry="8" style="stroke:#181818;stroke-width:0.5;"/><path d="M185.5,21.5 L185.5,48.5 M172.5,29.5 L198.5,29.5 M185.5,48.5 L172.5,63.5 M185.5,48.5 L198.5,63.5 " fill="none" style="stroke:#181818;stroke-width:0.5;"/><text fill="#000000" font-family="sans-serif" font-size="14" lengthAdjust="spacing" textLength="33" x="166" y="1655.4434">Actor</text><ellipse cx="185.5" cy="1667.457" fill="#E2E2F0" rx="8" ry="8" style="stroke:#181818;stroke-width:0.5;"/><path d="M185.5,1675.457 L185.5,1702.457 M172.5,1683.457 L198.5,1683.457 M185.5,1702.457 L172.5,1717.457 M185.5,1702.457 L198.5,1717.457 " fill="none" style="stroke:#181818;stroke-width:0.5;"/><rect fill="#E2E2F0" height="32.6211" rx="2.5" ry="2.5" style="stroke:#181818;stroke-width:0.5;" width="94" x="395.5" y="50"/><text fill="#000000" font-family="sans-serif" font-size="14" lengthAdjust="spacing" textLength="80" x="402.5" y="72.1074">SrsPublisher</text><rect fill="#E2E2F0" height="32.6211" rx="2.5" ry="2.5" style="stroke:#181818;stroke-width:0.5;" width="94" x="395.5" y="1640.3359"/><text fill="#000000" font-family="sans-serif" font-size="14" lengthAdjust="spacing" textLength="80" x="402.5" y="1662.4434">SrsPublisher</text><rect fill="#E2E2F0" height="32.6211" rx="2.5" ry="2.5" style="stroke:#181818;stroke-width:0.5;" width="114" x="527.5" y="50"/><text fill="#000000" font-family="sans-serif" font-size="14" lengthAdjust="spacing" textLength="100" x="534.5" y="72.1074">SrsCameraView</text><rect fill="#E2E2F0" height="32.6211" rx="2.5" ry="2.5" style="stroke:#181818;stroke-width:0.5;" width="114" x="527.5" y="1640.3359"/><text fill="#000000" font-family="sans-serif" font-size="14" lengthAdjust="spacing" textLength="100" x="534.5" y="1662.4434">SrsCameraView</text><rect fill="#E2E2F0" height="32.6211" rx="2.5" ry="2.5" style="stroke:#181818;stroke-width:0.5;" width="96" x="781.5" y="50"/><text fill="#000000" font-family="sans-serif" font-size="14" lengthAdjust="spacing" textLength="82" x="788.5" y="72.1074">RtmpHandler</text><rect fill="#E2E2F0" height="32.6211" rx="2.5" ry="2.5" style="stroke:#181818;stroke-width:0.5;" width="96" x="781.5" y="1640.3359"/><text fill="#000000" font-family="sans-serif" font-size="14" lengthAdjust="spacing" textLength="82" x="788.5" y="1662.4434">RtmpHandler</text><rect fill="#E2E2F0" height="32.6211" rx="2.5" ry="2.5" style="stroke:#181818;stroke-width:0.5;" width="88" x="887.5" y="50"/><text fill="#000000" font-family="sans-serif" font-size="14" lengthAdjust="spacing" textLength="74" x="894.5" y="72.1074">SrsEncoder</text><rect fill="#E2E2F0" height="32.6211" rx="2.5" ry="2.5" style="stroke:#181818;stroke-width:0.5;" width="88" x="887.5" y="1640.3359"/><text fill="#000000" font-family="sans-serif" font-size="14" lengthAdjust="spacing" textLength="74" x="894.5" y="1662.4434">SrsEncoder</text><rect fill="#E2E2F0" height="32.6211" rx="2.5" ry="2.5" style="stroke:#181818;stroke-width:0.5;" width="130" x="1181.5" y="50"/><text fill="#000000" font-family="sans-serif" font-size="14" lengthAdjust="spacing" textLength="116" x="1188.5" y="72.1074">SrsRecordHandler</text><rect fill="#E2E2F0" height="32.6211" rx="2.5" ry="2.5" style="stroke:#181818;stroke-width:0.5;" width="130" x="1181.5" y="1640.3359"/><text fill="#000000" font-family="sans-serif" font-size="14" lengthAdjust="spacing" textLength="116" x="1188.5" y="1662.4434">SrsRecordHandler</text><rect fill="#E2E2F0" height="32.6211" rx="2.5" ry="2.5" style="stroke:#181818;stroke-width:0.5;" width="92" x="1321.5" y="50"/><text fill="#000000" font-family="sans-serif" font-size="14" lengthAdjust="spacing" textLength="78" x="1328.5" y="72.1074">SrsFlvMuxer</text><rect fill="#E2E2F0" height="32.6211" rx="2.5" ry="2.5" style="stroke:#181818;stroke-width:0.5;" width="92" x="1321.5" y="1640.3359"/><text fill="#000000" font-family="sans-serif" font-size="14" lengthAdjust="spacing" textLength="78" x="1328.5" y="1662.4434">SrsFlvMuxer</text><rect fill="#E2E2F0" height="32.6211" rx="2.5" ry="2.5" style="stroke:#181818;stroke-width:0.5;" width="54" x="1494.5" y="50"/><text fill="#000000" font-family="sans-serif" font-size="14" lengthAdjust="spacing" textLength="40" x="1501.5" y="72.1074">SrsFlv</text><rect fill="#E2E2F0" height="32.6211" rx="2.5" ry="2.5" style="stroke:#181818;stroke-width:0.5;" width="54" x="1494.5" y="1640.3359"/><text fill="#000000" font-family="sans-serif" font-size="14" lengthAdjust="spacing" textLength="40" x="1501.5" y="1662.4434">SrsFlv</text><rect fill="#E2E2F0" height="32.6211" rx="2.5" ry="2.5" style="stroke:#181818;stroke-width:0.5;" width="100" x="1649.5" y="50"/><text fill="#000000" font-family="sans-serif" font-size="14" lengthAdjust="spacing" textLength="86" x="1656.5" y="72.1074">SrsMp4Muxer</text><rect fill="#E2E2F0" height="32.6211" rx="2.5" ry="2.5" style="stroke:#181818;stroke-width:0.5;" width="100" x="1649.5" y="1640.3359"/><text fill="#000000" font-family="sans-serif" font-size="14" lengthAdjust="spacing" textLength="86" x="1656.5" y="1662.4434">SrsMp4Muxer</text><rect fill="#E2E2F0" height="32.6211" rx="2.5" ry="2.5" style="stroke:#181818;stroke-width:0.5;" width="151" x="1759.5" y="50"/><text fill="#000000" font-family="sans-serif" font-size="14" lengthAdjust="spacing" textLength="137" x="1766.5" y="72.1074">DefaultRtmpPublisher</text><rect fill="#E2E2F0" height="32.6211" rx="2.5" ry="2.5" style="stroke:#181818;stroke-width:0.5;" width="151" x="1759.5" y="1640.3359"/><text fill="#000000" font-family="sans-serif" font-size="14" lengthAdjust="spacing" textLength="137" x="1766.5" y="1662.4434">DefaultRtmpPublisher</text><rect fill="#E2E2F0" height="32.6211" rx="2.5" ry="2.5" style="stroke:#181818;stroke-width:0.5;" width="119" x="1999.5" y="50"/><text fill="#000000" font-family="sans-serif" font-size="14" lengthAdjust="spacing" textLength="105" x="2006.5" y="72.1074">RtmpConnection</text><rect fill="#E2E2F0" height="32.6211" rx="2.5" ry="2.5" style="stroke:#181818;stroke-width:0.5;" width="119" x="1999.5" y="1640.3359"/><text fill="#000000" font-family="sans-serif" font-size="14" lengthAdjust="spacing" textLength="105" x="2006.5" y="1662.4434">RtmpConnection</text><rect fill="#E2E2F0" height="32.6211" rx="2.5" ry="2.5" style="stroke:#181818;stroke-width:0.5;" width="101" x="2128.5" y="50"/><text fill="#000000" font-family="sans-serif" font-size="14" lengthAdjust="spacing" textLength="87" x="2135.5" y="72.1074">RtmpDecoder</text><rect fill="#E2E2F0" height="32.6211" rx="2.5" ry="2.5" style="stroke:#181818;stroke-width:0.5;" width="101" x="2128.5" y="1640.3359"/><text fill="#000000" font-family="sans-serif" font-size="14" lengthAdjust="spacing" textLength="87" x="2135.5" y="1662.4434">RtmpDecoder</text><polygon fill="#181818" points="430.5,112.9121,440.5,116.9121,430.5,120.9121,434.5,116.9121" style="stroke:#181818;stroke-width:1.0;"/><line style="stroke:#181818;stroke-width:1.0;" x1="185.5" x2="436.5" y1="116.9121" y2="116.9121"/><text fill="#000000" font-family="sans-serif" font-size="13" font-weight="bold" lengthAdjust="spacing" textLength="7" x="192.5" y="111.6494">1</text><text fill="#000000" font-family="sans-serif" font-size="13" lengthAdjust="spacing" textLength="222" x="203.5" y="111.6494">setEncodeHandler(SrsEncodeHandler)</text><polygon fill="#181818" points="919.5,164.4941,929.5,168.4941,919.5,172.4941,923.5,168.4941" style="stroke:#181818;stroke-width:1.0;"/><line style="stroke:#181818;stroke-width:1.0;" x1="442.5" x2="925.5" y1="168.4941" y2="168.4941"/><text fill="#000000" font-family="sans-serif" font-size="13" font-weight="bold" lengthAdjust="spacing" textLength="7" x="449.5" y="163.2314">2</text><text fill="#000000" font-family="sans-serif" font-size="13" lengthAdjust="spacing" textLength="222" x="460.5" y="163.2314">setEncodeHandler(SrsEncodeHandler)</text><path d="M220,129.9121 L220,190.9121 L437,190.9121 L437,139.9121 L427,129.9121 L220,129.9121 " fill="#FEFFDD" style="stroke:#181818;stroke-width:0.5;"/><path d="M427,129.9121 L427,139.9121 L437,139.9121 L427,129.9121 " fill="#FEFFDD" style="stroke:#181818;stroke-width:0.5;"/><text fill="#000000" font-family="sans-serif" font-size="13" lengthAdjust="spacing" textLength="11" x="226" y="148.9404">1.</text><text fill="#FF0000" font-family="sans-serif" font-size="13" lengthAdjust="spacing" textLength="146" x="237" y="148.9404">&#21019;&#24314;SrsEncoder&#26680;&#24515;&#23545;&#35937;</text><text fill="#000000" font-family="sans-serif" font-size="13" lengthAdjust="spacing" textLength="178" x="226" y="166.2314">2.&#35774;&#32622;setFlvMuxer(mFlvMuxer)</text><text fill="#000000" font-family="sans-serif" font-size="13" lengthAdjust="spacing" textLength="196" x="226" y="183.5225">3.&#35774;&#32622;setMp4Muxer(mMp4Muxer)</text><line style="stroke:#181818;stroke-width:1.0;" x1="931.5" x2="973.5" y1="220.0762" y2="220.0762"/><line style="stroke:#181818;stroke-width:1.0;" x1="973.5" x2="973.5" y1="220.0762" y2="233.0762"/><line style="stroke:#181818;stroke-width:1.0;" x1="932.5" x2="973.5" y1="233.0762" y2="233.0762"/><polygon fill="#181818" points="942.5,229.0762,932.5,233.0762,942.5,237.0762,938.5,233.0762" style="stroke:#181818;stroke-width:1.0;"/><text fill="#000000" font-family="sans-serif" font-size="13" font-weight="bold" lengthAdjust="spacing" textLength="7" x="938.5" y="214.8135">3</text><text fill="#000000" font-family="sans-serif" font-size="13" lengthAdjust="spacing" textLength="26" x="949.5" y="214.8135">&#26500;&#36896;</text><path d="M780,205.2852 L780,232.2852 L926,232.2852 L926,215.2852 L916,205.2852 L780,205.2852 " fill="#FEFFDD" style="stroke:#181818;stroke-width:0.5;"/><path d="M916,205.2852 L916,215.2852 L926,215.2852 L916,205.2852 " fill="#FEFFDD" style="stroke:#181818;stroke-width:0.5;"/><text fill="#000000" font-family="sans-serif" font-size="13" lengthAdjust="spacing" textLength="125" x="786" y="224.3135">1.&#21019;&#24314;videoFormat int</text><polygon fill="#181818" points="430.5,260.3672,440.5,264.3672,430.5,268.3672,434.5,264.3672" style="stroke:#181818;stroke-width:1.0;"/><line style="stroke:#181818;stroke-width:1.0;" x1="185.5" x2="436.5" y1="264.3672" y2="264.3672"/><text fill="#000000" font-family="sans-serif" font-size="13" font-weight="bold" lengthAdjust="spacing" textLength="7" x="192.5" y="259.1045">4</text><text fill="#000000" font-family="sans-serif" font-size="13" lengthAdjust="spacing" textLength="176" x="203.5" y="259.1045">setRtmpHandler(RtmpHandler)</text><polygon fill="#181818" points="919.5,303.3037,929.5,307.3037,919.5,311.3037,923.5,307.3037" style="stroke:#181818;stroke-width:1.0;"/><line style="stroke:#181818;stroke-width:1.0;" x1="442.5" x2="925.5" y1="307.3037" y2="307.3037"/><text fill="#000000" font-family="sans-serif" font-size="13" font-weight="bold" lengthAdjust="spacing" textLength="7" x="449.5" y="302.041">5</text><text fill="#000000" font-family="sans-serif" font-size="13" lengthAdjust="spacing" textLength="176" x="460.5" y="302.041">setRtmpHandler(RtmpHandler)</text><path d="M192,277.3672 L192,321.3672 L437,321.3672 L437,287.3672 L427,277.3672 L192,277.3672 " fill="#FEFFDD" style="stroke:#181818;stroke-width:0.5;"/><path d="M427,277.3672 L427,287.3672 L437,287.3672 L427,277.3672 " fill="#FEFFDD" style="stroke:#181818;stroke-width:0.5;"/><text fill="#000000" font-family="sans-serif" font-size="13" lengthAdjust="spacing" textLength="224" x="198" y="296.3955">1.&#21019;&#24314;&#19968;&#20010;&#26631;&#20934;&#30340;flv&#32534;&#30721;&#22120;SrsFlvMuxer</text><text fill="#000000" font-family="sans-serif" font-size="13" lengthAdjust="spacing" textLength="144" x="198" y="313.6865">2.mEncoder.setFlvMuxer</text><polygon fill="#181818" points="430.5,346.2402,440.5,350.2402,430.5,354.2402,434.5,350.2402" style="stroke:#181818;stroke-width:1.0;"/><line style="stroke:#181818;stroke-width:1.0;" x1="185.5" x2="436.5" y1="350.2402" y2="350.2402"/><text fill="#000000" font-family="sans-serif" font-size="13" font-weight="bold" lengthAdjust="spacing" textLength="7" x="192.5" y="344.9775">6</text><text fill="#000000" font-family="sans-serif" font-size="13" lengthAdjust="spacing" textLength="216" x="203.5" y="344.9775">setRecordHandler(SrsRecordHandler)</text><polygon fill="#181818" points="919.5,389.1768,929.5,393.1768,919.5,397.1768,923.5,393.1768" style="stroke:#181818;stroke-width:1.0;"/><line style="stroke:#181818;stroke-width:1.0;" x1="442.5" x2="925.5" y1="393.1768" y2="393.1768"/><text fill="#000000" font-family="sans-serif" font-size="13" font-weight="bold" lengthAdjust="spacing" textLength="7" x="449.5" y="387.9141">7</text><text fill="#000000" font-family="sans-serif" font-size="13" lengthAdjust="spacing" textLength="216" x="460.5" y="387.9141">setRecordHandler(SrsRecordHandler)</text><path d="M169,363.2402 L169,407.2402 L437,407.2402 L437,373.2402 L427,363.2402 L169,363.2402 " fill="#FEFFDD" style="stroke:#181818;stroke-width:0.5;"/><path d="M427,363.2402 L427,373.2402 L437,373.2402 L427,363.2402 " fill="#FEFFDD" style="stroke:#181818;stroke-width:0.5;"/><text fill="#000000" font-family="sans-serif" font-size="13" lengthAdjust="spacing" textLength="247" x="175" y="382.2686">1.&#21019;&#24314;&#19968;&#20010;&#26631;&#20934;&#30340;Mp4&#32534;&#30721;&#22120;SrsMp4Muxer</text><text fill="#000000" font-family="sans-serif" font-size="13" lengthAdjust="spacing" textLength="153" x="175" y="399.5596">2.mEncoder.setMp4Muxer</text><polygon fill="#181818" points="430.5,432.1133,440.5,436.1133,430.5,440.1133,434.5,436.1133" style="stroke:#181818;stroke-width:1.0;"/><line style="stroke:#181818;stroke-width:1.0;" x1="185.5" x2="436.5" y1="436.1133" y2="436.1133"/><text fill="#000000" font-family="sans-serif" font-size="13" font-weight="bold" lengthAdjust="spacing" textLength="7" x="192.5" y="430.8506">8</text><text fill="#000000" font-family="sans-serif" font-size="13" lengthAdjust="spacing" textLength="131" x="203.5" y="430.8506">setPreviewResolution()</text><polygon fill="#181818" points="919.5,463.4043,929.5,467.4043,919.5,471.4043,923.5,467.4043" style="stroke:#181818;stroke-width:1.0;"/><line style="stroke:#181818;stroke-width:1.0;" x1="442.5" x2="925.5" y1="467.4043" y2="467.4043"/><text fill="#000000" font-family="sans-serif" font-size="13" font-weight="bold" lengthAdjust="spacing" textLength="7" x="449.5" y="462.1416">9</text><text fill="#000000" font-family="sans-serif" font-size="13" lengthAdjust="spacing" textLength="131" x="460.5" y="462.1416">setPreviewResolution()</text><polygon fill="#181818" points="595.5,514.9863,585.5,518.9863,595.5,522.9863,591.5,518.9863" style="stroke:#181818;stroke-width:1.0;"/><line style="stroke:#181818;stroke-width:1.0;" x1="589.5" x2="930.5" y1="518.9863" y2="518.9863"/><text fill="#000000" font-family="sans-serif" font-size="13" font-weight="bold" lengthAdjust="spacing" textLength="14" x="601.5" y="513.7236">10</text><text fill="#000000" font-family="sans-serif" font-size="13" lengthAdjust="spacing" textLength="131" x="619.5" y="513.7236">setPreviewResolution()</text><path d="M321,480.4043 L321,541.4043 L579,541.4043 L579,490.4043 L569,480.4043 L321,480.4043 " fill="#FEFFDD" style="stroke:#181818;stroke-width:0.5;"/><path d="M569,480.4043 L569,490.4043 L579,490.4043 L569,480.4043 " fill="#FEFFDD" style="stroke:#181818;stroke-width:0.5;"/><text fill="#000000" font-family="sans-serif" font-size="13" lengthAdjust="spacing" textLength="136" x="327" y="499.4326">1.openCamera&#25171;&#24320;&#30456;&#26426;</text><text fill="#000000" font-family="sans-serif" font-size="13" lengthAdjust="spacing" textLength="237" x="327" y="516.7236">2.camera.setPreviewSize&#35774;&#32622;&#39044;&#35272;&#20998;&#36776;&#29575;</text><text fill="#000000" font-family="sans-serif" font-size="13" lengthAdjust="spacing" textLength="197" x="327" y="534.0146">3.mEncoder.setPreviewResolution</text><polygon fill="#181818" points="430.5,566.5684,440.5,570.5684,430.5,574.5684,434.5,570.5684" style="stroke:#181818;stroke-width:1.0;"/><line style="stroke:#181818;stroke-width:1.0;" x1="185.5" x2="436.5" y1="570.5684" y2="570.5684"/><text fill="#000000" font-family="sans-serif" font-size="13" font-weight="bold" lengthAdjust="spacing" textLength="14" x="192.5" y="565.3057">11</text><text fill="#000000" font-family="sans-serif" font-size="13" lengthAdjust="spacing" textLength="109" x="210.5" y="565.3057">setVideoHDMode()</text><polygon fill="#181818" points="919.5,618.1504,929.5,622.1504,919.5,626.1504,923.5,622.1504" style="stroke:#181818;stroke-width:1.0;"/><line style="stroke:#181818;stroke-width:1.0;" x1="442.5" x2="925.5" y1="622.1504" y2="622.1504"/><text fill="#000000" font-family="sans-serif" font-size="13" font-weight="bold" lengthAdjust="spacing" textLength="14" x="449.5" y="616.8877">12</text><text fill="#000000" font-family="sans-serif" font-size="13" lengthAdjust="spacing" textLength="109" x="467.5" y="616.8877">setVideoHDMode()</text><path d="M297,583.5684 L297,644.5684 L437,644.5684 L437,593.5684 L427,583.5684 L297,583.5684 " fill="#FEFFDD" style="stroke:#181818;stroke-width:0.5;"/><path d="M427,583.5684 L427,593.5684 L437,593.5684 L427,583.5684 " fill="#FEFFDD" style="stroke:#181818;stroke-width:0.5;"/><text fill="#000000" font-family="sans-serif" font-size="13" lengthAdjust="spacing" textLength="119" x="303" y="602.5967">1.&#35774;&#32622;&#30721;&#29575;1200kbps</text><text fill="#000000" font-family="sans-serif" font-size="13" lengthAdjust="spacing" textLength="89" x="303" y="619.8877">2.&#35774;&#32622;&#36895;&#24230;&#20248;&#20808;</text><text fill="#000000" font-family="sans-serif" font-size="13" lengthAdjust="spacing" textLength="4" x="303" y="637.1787">&#160;</text><polygon fill="#181818" points="430.5,669.7324,440.5,673.7324,430.5,677.7324,434.5,673.7324" style="stroke:#181818;stroke-width:1.0;"/><line style="stroke:#181818;stroke-width:1.0;" x1="185.5" x2="436.5" y1="673.7324" y2="673.7324"/><text fill="#000000" font-family="sans-serif" font-size="13" font-weight="bold" lengthAdjust="spacing" textLength="14" x="192.5" y="668.4697">13</text><text fill="#000000" font-family="sans-serif" font-size="13" lengthAdjust="spacing" textLength="79" x="210.5" y="668.4697">startCamera()</text><polygon fill="#181818" points="919.5,712.6689,929.5,716.6689,919.5,720.6689,923.5,716.6689" style="stroke:#181818;stroke-width:1.0;"/><line style="stroke:#181818;stroke-width:1.0;" x1="442.5" x2="925.5" y1="716.6689" y2="716.6689"/><text fill="#000000" font-family="sans-serif" font-size="13" font-weight="bold" lengthAdjust="spacing" textLength="14" x="449.5" y="711.4063">14</text><text fill="#000000" font-family="sans-serif" font-size="13" lengthAdjust="spacing" textLength="79" x="467.5" y="711.4063">startCamera()</text><path d="M254,686.7324 L254,730.7324 L437,730.7324 L437,696.7324 L427,686.7324 L254,686.7324 " fill="#FEFFDD" style="stroke:#181818;stroke-width:0.5;"/><path d="M427,686.7324 L427,696.7324 L437,696.7324 L427,686.7324 " fill="#FEFFDD" style="stroke:#181818;stroke-width:0.5;"/><text fill="#000000" font-family="sans-serif" font-size="13" lengthAdjust="spacing" textLength="162" x="260" y="705.7607">1.&#26816;&#27979;openCamera&#26159;&#21542;&#25104;&#21151;</text><text fill="#000000" font-family="sans-serif" font-size="13" lengthAdjust="spacing" textLength="81" x="260" y="723.0518">2.startPreview</text><polygon fill="#181818" points="430.5,755.6055,440.5,759.6055,430.5,763.6055,434.5,759.6055" style="stroke:#181818;stroke-width:1.0;"/><line style="stroke:#181818;stroke-width:1.0;" x1="185.5" x2="436.5" y1="759.6055" y2="759.6055"/><text fill="#000000" font-family="sans-serif" font-size="13" font-weight="bold" lengthAdjust="spacing" textLength="14" x="192.5" y="754.3428">15</text><text fill="#000000" font-family="sans-serif" font-size="13" lengthAdjust="spacing" textLength="77" x="210.5" y="754.3428">startPublish()</text><polygon fill="#181818" points="919.5,786.8965,929.5,790.8965,919.5,794.8965,923.5,790.8965" style="stroke:#181818;stroke-width:1.0;"/><line style="stroke:#181818;stroke-width:1.0;" x1="442.5" x2="925.5" y1="790.8965" y2="790.8965"/><text fill="#000000" font-family="sans-serif" font-size="13" font-weight="bold" lengthAdjust="spacing" textLength="14" x="449.5" y="785.6338">16</text><text fill="#000000" font-family="sans-serif" font-size="13" lengthAdjust="spacing" textLength="77" x="467.5" y="785.6338">startPublish()</text><polygon fill="#181818" points="1355.5,847.124,1365.5,851.124,1355.5,855.124,1359.5,851.124" style="stroke:#181818;stroke-width:1.0;"/><line style="stroke:#181818;stroke-width:1.0;" x1="931.5" x2="1361.5" y1="851.124" y2="851.124"/><text fill="#000000" font-family="sans-serif" font-size="13" font-weight="bold" lengthAdjust="spacing" textLength="14" x="938.5" y="845.8613">17</text><text fill="#000000" font-family="sans-serif" font-size="13" lengthAdjust="spacing" textLength="34" x="956.5" y="845.8613">start()</text><path d="M770,803.8965 L770,882.8965 L926,882.8965 L926,813.8965 L916,803.8965 L770,803.8965 " fill="#FEFFDD" style="stroke:#181818;stroke-width:0.5;"/><path d="M916,803.8965 L916,813.8965 L926,813.8965 L916,803.8965 " fill="#FEFFDD" style="stroke:#181818;stroke-width:0.5;"/><text fill="#FF0000" font-family="sans-serif" font-size="13" lengthAdjust="spacing" textLength="135" x="776" y="822.9248">1.&#20248;&#20808;&#24314;&#31435;&#36830;&#25509;connect</text><text fill="#000000" font-family="sans-serif" font-size="13" lengthAdjust="spacing" textLength="127" x="776" y="840.2158">2.&#24320;&#21551;&#35835;&#25968;&#25454;&#32447;&#31243;read</text><text fill="#FF0000" font-family="sans-serif" font-size="13" lengthAdjust="spacing" textLength="76" x="776" y="857.5068">3.&#35782;&#21035;&#24103;&#31867;&#22411;</text><text fill="#FF0000" font-family="sans-serif" font-size="13" lengthAdjust="spacing" textLength="76" x="776" y="874.7979">4.sendFlvTag</text><line style="stroke:#181818;stroke-width:1.0;" x1="1367.5" x2="1409.5" y1="911.3516" y2="911.3516"/><line style="stroke:#181818;stroke-width:1.0;" x1="1409.5" x2="1409.5" y1="911.3516" y2="924.3516"/><line style="stroke:#181818;stroke-width:1.0;" x1="1368.5" x2="1409.5" y1="924.3516" y2="924.3516"/><polygon fill="#181818" points="1378.5,920.3516,1368.5,924.3516,1378.5,928.3516,1374.5,924.3516" style="stroke:#181818;stroke-width:1.0;"/><text fill="#000000" font-family="sans-serif" font-size="13" font-weight="bold" lengthAdjust="spacing" textLength="14" x="1374.5" y="906.0889">18</text><text fill="#000000" font-family="sans-serif" font-size="13" lengthAdjust="spacing" textLength="54" x="1392.5" y="906.0889">connect()</text><polygon fill="#181818" points="1823,951.6426,1833,955.6426,1823,959.6426,1827,955.6426" style="stroke:#181818;stroke-width:1.0;"/><line style="stroke:#181818;stroke-width:1.0;" x1="1367.5" x2="1829" y1="955.6426" y2="955.6426"/><text fill="#000000" font-family="sans-serif" font-size="13" font-weight="bold" lengthAdjust="spacing" textLength="14" x="1374.5" y="950.3799">19</text><text fill="#000000" font-family="sans-serif" font-size="13" lengthAdjust="spacing" textLength="54" x="1392.5" y="950.3799">connect()</text><polygon fill="#181818" points="2047,994.5791,2057,998.5791,2047,1002.5791,2051,998.5791" style="stroke:#181818;stroke-width:1.0;"/><line style="stroke:#181818;stroke-width:1.0;" x1="1835" x2="2053" y1="998.5791" y2="998.5791"/><text fill="#000000" font-family="sans-serif" font-size="13" font-weight="bold" lengthAdjust="spacing" textLength="14" x="1842" y="993.3164">20</text><text fill="#000000" font-family="sans-serif" font-size="13" lengthAdjust="spacing" textLength="54" x="1860" y="993.3164">connect()</text><path d="M1430,968.6426 L1430,1012.6426 L1830,1012.6426 L1830,978.6426 L1820,968.6426 L1430,968.6426 " fill="#FEFFDD" style="stroke:#181818;stroke-width:0.5;"/><path d="M1820,968.6426 L1820,978.6426 L1830,978.6426 L1820,968.6426 " fill="#FEFFDD" style="stroke:#181818;stroke-width:0.5;"/><text fill="#000000" font-family="sans-serif" font-size="13" lengthAdjust="spacing" textLength="138" x="1436" y="987.6709">1.&#36890;&#36807;socket&#24314;&#31435;ip&#36830;&#25509;</text><text fill="#FF0000" font-family="sans-serif" font-size="13" lengthAdjust="spacing" textLength="379" x="1436" y="1004.9619">2.RtmpConnection&#37324;&#38754;&#30340;RtmpConnection&#25509;&#25910;RtmpPacket&#25968;&#25454;&#21253;</text><line style="stroke:#181818;stroke-width:1.0;" x1="442.5" x2="484.5" y1="1041.5156" y2="1041.5156"/><line style="stroke:#181818;stroke-width:1.0;" x1="484.5" x2="484.5" y1="1041.5156" y2="1054.5156"/><line style="stroke:#181818;stroke-width:1.0;" x1="443.5" x2="484.5" y1="1054.5156" y2="1054.5156"/><polygon fill="#181818" points="453.5,1050.5156,443.5,1054.5156,453.5,1058.5156,449.5,1054.5156" style="stroke:#181818;stroke-width:1.0;"/><text fill="#000000" font-family="sans-serif" font-size="13" font-weight="bold" lengthAdjust="spacing" textLength="14" x="449.5" y="1036.2529">21</text><text fill="#000000" font-family="sans-serif" font-size="13" lengthAdjust="spacing" textLength="78" x="467.5" y="1036.2529">startEncode()</text><polygon fill="#181818" points="572.5,1093.4521,582.5,1097.4521,572.5,1101.4521,576.5,1097.4521" style="stroke:#181818;stroke-width:1.0;"/><line style="stroke:#181818;stroke-width:1.0;" x1="442.5" x2="578.5" y1="1097.4521" y2="1097.4521"/><text fill="#000000" font-family="sans-serif" font-size="13" font-weight="bold" lengthAdjust="spacing" textLength="14" x="449.5" y="1092.1895">22</text><text fill="#000000" font-family="sans-serif" font-size="13" lengthAdjust="spacing" textLength="100" x="467.5" y="1092.1895">enableEncoding()</text><path d="M5,1067.5156 L5,1111.5156 L438,1111.5156 L438,1077.5156 L428,1067.5156 L5,1067.5156 " fill="#FEFFDD" style="stroke:#181818;stroke-width:0.5;"/><path d="M428,1067.5156 L428,1077.5156 L438,1077.5156 L428,1067.5156 " fill="#FEFFDD" style="stroke:#181818;stroke-width:0.5;"/><text fill="#FF0000" font-family="sans-serif" font-size="13" lengthAdjust="spacing" textLength="412" x="11" y="1086.5439">1.&#25968;&#25454;&#20174;drawSurface&#35835;&#21462;&#21040;glReadPixels&#30340;buffer&#20256;&#36882;&#21040;SrsCameraView</text><text fill="#FF0000" font-family="sans-serif" font-size="13" lengthAdjust="spacing" textLength="330" x="11" y="1103.835">2.SrsCameraView.setPreviewCallback(onGetRgbaFrame)</text><line style="stroke:#181818;stroke-width:1.0;" x1="584.5" x2="626.5" y1="1140.3887" y2="1140.3887"/><line style="stroke:#181818;stroke-width:1.0;" x1="626.5" x2="626.5" y1="1140.3887" y2="1153.3887"/><line style="stroke:#181818;stroke-width:1.0;" x1="585.5" x2="626.5" y1="1153.3887" y2="1153.3887"/><polygon fill="#181818" points="595.5,1149.3887,585.5,1153.3887,595.5,1157.3887,591.5,1153.3887" style="stroke:#181818;stroke-width:1.0;"/><text fill="#000000" font-family="sans-serif" font-size="13" font-weight="bold" lengthAdjust="spacing" textLength="14" x="591.5" y="1135.126">23</text><text fill="#000000" font-family="sans-serif" font-size="13" lengthAdjust="spacing" textLength="213" x="609.5" y="1135.126">onGetRgbaFrame()/onGetPcmFrame</text><polygon fill="#181818" points="919.5,1192.3252,929.5,1196.3252,919.5,1200.3252,923.5,1196.3252" style="stroke:#181818;stroke-width:1.0;"/><line style="stroke:#181818;stroke-width:1.0;" x1="584.5" x2="925.5" y1="1196.3252" y2="1196.3252"/><text fill="#000000" font-family="sans-serif" font-size="13" font-weight="bold" lengthAdjust="spacing" textLength="14" x="591.5" y="1191.0625">24</text><text fill="#000000" font-family="sans-serif" font-size="13" lengthAdjust="spacing" textLength="213" x="609.5" y="1191.0625">onGetRgbaFrame()/onGetPcmFrame</text><path d="M413,1166.3887 L413,1210.3887 L579,1210.3887 L579,1176.3887 L569,1166.3887 L413,1166.3887 " fill="#FEFFDD" style="stroke:#181818;stroke-width:0.5;"/><path d="M569,1166.3887 L569,1176.3887 L579,1176.3887 L569,1166.3887 " fill="#FEFFDD" style="stroke:#181818;stroke-width:0.5;"/><text fill="#000000" font-family="sans-serif" font-size="13" lengthAdjust="spacing" textLength="133" x="419" y="1185.417">1.hwRgbaFrame&#30828;&#32534;&#30721;</text><text fill="#000000" font-family="sans-serif" font-size="13" lengthAdjust="spacing" textLength="145" x="419" y="1202.708">2.onProcessedYuvFrame</text><line style="stroke:#181818;stroke-width:1.0;" x1="931.5" x2="973.5" y1="1239.2617" y2="1239.2617"/><line style="stroke:#181818;stroke-width:1.0;" x1="973.5" x2="973.5" y1="1239.2617" y2="1252.2617"/><line style="stroke:#181818;stroke-width:1.0;" x1="932.5" x2="973.5" y1="1252.2617" y2="1252.2617"/><polygon fill="#181818" points="942.5,1248.2617,932.5,1252.2617,942.5,1256.2617,938.5,1252.2617" style="stroke:#181818;stroke-width:1.0;"/><text fill="#000000" font-family="sans-serif" font-size="13" font-weight="bold" lengthAdjust="spacing" textLength="14" x="938.5" y="1233.999">25</text><text fill="#000000" font-family="sans-serif" font-size="13" lengthAdjust="spacing" textLength="245" x="956.5" y="1233.999">onProcessedYuvFrame()/onGetPcmFrame</text><path d="M766,1224.4707 L766,1251.4707 L926,1251.4707 L926,1234.4707 L916,1224.4707 L766,1224.4707 " fill="#FEFFDD" style="stroke:#181818;stroke-width:0.5;"/><path d="M916,1224.4707 L916,1234.4707 L926,1234.4707 L916,1224.4707 " fill="#FEFFDD" style="stroke:#181818;stroke-width:0.5;"/><text fill="#000000" font-family="sans-serif" font-size="13" lengthAdjust="spacing" textLength="139" x="772" y="1243.499">1.&#36827;&#34892;rgb&#21040;yuv&#25968;&#25454;&#33719;&#21462;</text><line style="stroke:#181818;stroke-width:1.0;" x1="931.5" x2="973.5" y1="1288.6982" y2="1288.6982"/><line style="stroke:#181818;stroke-width:1.0;" x1="973.5" x2="973.5" y1="1288.6982" y2="1301.6982"/><line style="stroke:#181818;stroke-width:1.0;" x1="932.5" x2="973.5" y1="1301.6982" y2="1301.6982"/><polygon fill="#181818" points="942.5,1297.6982,932.5,1301.6982,942.5,1305.6982,938.5,1301.6982" style="stroke:#181818;stroke-width:1.0;"/><text fill="#000000" font-family="sans-serif" font-size="13" font-weight="bold" lengthAdjust="spacing" textLength="14" x="938.5" y="1283.4355">26</text><text fill="#000000" font-family="sans-serif" font-size="13" lengthAdjust="spacing" textLength="283" x="956.5" y="1283.4355">onEncodedAnnexbFrame()/onEncodedAacFrame</text><path d="M731,1265.2617 L731,1309.2617 L926,1309.2617 L926,1275.2617 L916,1265.2617 L731,1265.2617 " fill="#FEFFDD" style="stroke:#181818;stroke-width:0.5;"/><path d="M916,1265.2617 L916,1275.2617 L926,1275.2617 L916,1265.2617 " fill="#FEFFDD" style="stroke:#181818;stroke-width:0.5;"/><text fill="#000000" font-family="sans-serif" font-size="13" lengthAdjust="spacing" textLength="174" x="737" y="1284.29">1.mp4Muxer.writeSampleData</text><text fill="#000000" font-family="sans-serif" font-size="13" lengthAdjust="spacing" textLength="160" x="737" y="1301.5811">2.flvMuxer.writeSampleData</text><polygon fill="#181818" points="1355.5,1334.1348,1365.5,1338.1348,1355.5,1342.1348,1359.5,1338.1348" style="stroke:#181818;stroke-width:1.0;"/><line style="stroke:#181818;stroke-width:1.0;" x1="931.5" x2="1361.5" y1="1338.1348" y2="1338.1348"/><text fill="#000000" font-family="sans-serif" font-size="13" font-weight="bold" lengthAdjust="spacing" textLength="14" x="938.5" y="1332.8721">27</text><text fill="#000000" font-family="sans-serif" font-size="13" lengthAdjust="spacing" textLength="106" x="956.5" y="1332.8721">writeSampleData()</text><polygon fill="#181818" points="1509.5,1385.7168,1519.5,1389.7168,1509.5,1393.7168,1513.5,1389.7168" style="stroke:#181818;stroke-width:1.0;"/><line style="stroke:#181818;stroke-width:1.0;" x1="1367.5" x2="1515.5" y1="1389.7168" y2="1389.7168"/><text fill="#000000" font-family="sans-serif" font-size="13" font-weight="bold" lengthAdjust="spacing" textLength="14" x="1374.5" y="1384.4541">28</text><text fill="#000000" font-family="sans-serif" font-size="13" lengthAdjust="spacing" textLength="112" x="1392.5" y="1384.4541">writeVideoSample()</text><path d="M1151,1351.1348 L1151,1412.1348 L1362,1412.1348 L1362,1361.1348 L1352,1351.1348 L1151,1351.1348 " fill="#FEFFDD" style="stroke:#181818;stroke-width:0.5;"/><path d="M1352,1351.1348 L1352,1361.1348 L1362,1361.1348 L1352,1351.1348 " fill="#FEFFDD" style="stroke:#181818;stroke-width:0.5;"/><text fill="#000000" font-family="sans-serif" font-size="13" lengthAdjust="spacing" textLength="174" x="1157" y="1370.1631">1.&#36890;&#36807;mediaCodec&#35782;&#21035;&#22836;&#32467;&#26500;</text><text fill="#000000" font-family="sans-serif" font-size="13" lengthAdjust="spacing" textLength="76" x="1157" y="1387.4541">2.&#35782;&#21035;&#24103;&#31867;&#22411;</text><text fill="#000000" font-family="sans-serif" font-size="13" lengthAdjust="spacing" textLength="190" x="1157" y="1404.7451">3.&#35774;&#21035;sps,pps,writeH264SpsPps</text><line style="stroke:#181818;stroke-width:1.0;" x1="1521.5" x2="1563.5" y1="1472.3809" y2="1472.3809"/><line style="stroke:#181818;stroke-width:1.0;" x1="1563.5" x2="1563.5" y1="1472.3809" y2="1485.3809"/><line style="stroke:#181818;stroke-width:1.0;" x1="1522.5" x2="1563.5" y1="1485.3809" y2="1485.3809"/><polygon fill="#181818" points="1532.5,1481.3809,1522.5,1485.3809,1532.5,1489.3809,1528.5,1485.3809" style="stroke:#181818;stroke-width:1.0;"/><text fill="#000000" font-family="sans-serif" font-size="13" font-weight="bold" lengthAdjust="spacing" textLength="14" x="1528.5" y="1467.1182">29</text><text fill="#000000" font-family="sans-serif" font-size="13" lengthAdjust="spacing" textLength="111" x="1546.5" y="1467.1182">writeH264SpsPps()</text><path d="M1218,1423.0078 L1218,1519.0078 L1516,1519.0078 L1516,1433.0078 L1506,1423.0078 L1218,1423.0078 " fill="#FEFFDD" style="stroke:#181818;stroke-width:0.5;"/><path d="M1506,1423.0078 L1506,1433.0078 L1516,1433.0078 L1506,1423.0078 " fill="#FEFFDD" style="stroke:#181818;stroke-width:0.5;"/><text fill="#FF0000" font-family="sans-serif" font-size="13" lengthAdjust="spacing" textLength="161" x="1224" y="1442.0361">1.muxSequenceHeader&#20889;&#22836;</text><text fill="#000000" font-family="sans-serif" font-size="13" lengthAdjust="spacing" textLength="82" x="1224" y="1459.3271">2.&#20889;h264 to flv</text><text fill="#000000" font-family="sans-serif" font-size="13" lengthAdjust="spacing" textLength="145" x="1224" y="1476.6182">3.&#20889;dts:writeRtmpPacket</text><text fill="#000000" font-family="sans-serif" font-size="13" lengthAdjust="spacing" textLength="177" x="1224" y="1493.9092">4.writeH264IpbFrame&#20889;I&#24103;&#25968;&#25454;</text><text fill="#000000" font-family="sans-serif" font-size="13" lengthAdjust="spacing" textLength="277" x="1224" y="1511.2002">5.&#23558;&#25152;&#26377;&#25968;&#25454;&#32531;&#23384;&#21040;mFlvTagCache:SrsFlvFrame</text><line style="stroke:#181818;stroke-width:1.0;" x1="1521.5" x2="1563.5" y1="1547.7539" y2="1547.7539"/><line style="stroke:#181818;stroke-width:1.0;" x1="1563.5" x2="1563.5" y1="1547.7539" y2="1560.7539"/><line style="stroke:#181818;stroke-width:1.0;" x1="1522.5" x2="1563.5" y1="1560.7539" y2="1560.7539"/><polygon fill="#181818" points="1532.5,1556.7539,1522.5,1560.7539,1532.5,1564.7539,1528.5,1560.7539" style="stroke:#181818;stroke-width:1.0;"/><text fill="#000000" font-family="sans-serif" font-size="13" font-weight="bold" lengthAdjust="spacing" textLength="14" x="1528.5" y="1542.4912">30</text><text fill="#000000" font-family="sans-serif" font-size="13" lengthAdjust="spacing" textLength="146" x="1546.5" y="1542.4912">sendFlvTag(SrsFlvFrame)</text><polygon fill="#181818" points="1823,1588.0449,1833,1592.0449,1823,1596.0449,1827,1592.0449" style="stroke:#181818;stroke-width:1.0;"/><line style="stroke:#181818;stroke-width:1.0;" x1="1521.5" x2="1829" y1="1592.0449" y2="1592.0449"/><text fill="#000000" font-family="sans-serif" font-size="13" font-weight="bold" lengthAdjust="spacing" textLength="14" x="1528.5" y="1586.7822">31</text><text fill="#000000" font-family="sans-serif" font-size="13" lengthAdjust="spacing" textLength="182" x="1546.5" y="1586.7822">publishVideoData(SrsFlvFrame)</text><polygon fill="#181818" points="2047,1619.3359,2057,1623.3359,2047,1627.3359,2051,1623.3359" style="stroke:#181818;stroke-width:1.0;"/><line style="stroke:#181818;stroke-width:1.0;" x1="1835" x2="2053" y1="1623.3359" y2="1623.3359"/><text fill="#000000" font-family="sans-serif" font-size="13" font-weight="bold" lengthAdjust="spacing" textLength="14" x="1842" y="1618.0732">32</text><text fill="#000000" font-family="sans-serif" font-size="13" lengthAdjust="spacing" textLength="182" x="1860" y="1618.0732">publishVideoData(SrsFlvFrame)</text><!--SRC=[ZLPRJ-D657xFhyXR4wdr0gLzG2kaLIXb7v0YibgfKbuczWIijSUkBu7sALNP41fAqTAkODcoOTikgDi2M_MIGah-JCPs_aN77ZkUSKp20yWp_iuvt_dEnJ55eC3ij32LUSyxVUPj_u6FRlethGmGBSt8FWZ-0pChAZ94LaO7XYMBiWwGbIqPPj6kABAv1WC8Uqu22q251dWim_KG6Lzmq1LBrPS0aXJgaZacFNw2H4qQ1WvFIT0A53L3OXmcxv86YqfjsTuOOgDZ2Yn695ykwxEiZ-Z8mHPW5TYAvUV7QPXsFo9GGKC8YfQieKYZ-6O4l027EZ77J2O3R4j3jbeX1rhSx0VpN0tdJ6XHNKEnSaEXmujyXki1QX-MuYxMIBDWLe5LQsvQk2zgYcRC6L2QnyqZV7qLktBQ7Tpx6b_ywxqxkNylmCsNqOpWdT-u_vsJE56PSchqb2-Z3-FtKGboQlIKpsIO7kA9EyURWtgR8qSPrMG9QekQeG8hAvDX6ACRqxWvvdcIOBUQZPBfT-hzpgzEUmjlDTmNcrMbvdQVk-slyE4PqxY-J6eOG62K6ikT7P1SSc8cfZ31Uc8cf4Hi9b75afaCnsfC9aK3riY6MO6cfjZ-TEGciR_5Wc-KU7VTPi8cgUaGKGjdUnztw-vHntbvvQSZ1hT2xACaVmbfqmvURtgdJTniU3TdxkwMtyriyYCnnwdms6_RfOLbOZmnVnxBfa5vaR8GEjCpKrDFAheP3-6W_WfVlUbt3_3JPdaC6uji9oh612eSaENX_5Ht_ceneXvSuBqtJdCFV_FAvnDOXlgCvn4Uxq24G_Az40qK1N9ScOqsBL1fIBUxRrjUxzZP_KMaEvjTQAGxyDw5Tt7j_73fV7lkNlNSivO1WLH6Z3Eos2uQkFaMTqxTTzVuk1MxO52pf4-GHEWz0giH85XwmqzS8e6G3qsI1QLzanXqwgUCcF7V9SQ0hUQW_iBhRPcQ-0HQL1nPf_9moSm8lBV1rixWnzTaMV3NnCpv_k-02V0zKXdnpbDEW6If4sr1wvlU5SpaGmGg2Wp0CbgzlV2KG_zwLpB0Uiasga24fCBuk-UuURcgh93g5kKDg9WacufThKAZtsqFwi_8MovWQf5d10x3h8O2K9GA4I6deK_9KbwjW4M3uFAS4iolif7yUBjS_bvmKHJLu9ng7StC15Es_clhGvnxyXlT-_uaQAXeQ28qJIXzPjU68TC_s2dWiK6ztf5ticEiLeZ6NzWrMY5lznzIat51w9FqW7JRHYME4bq3SJII6dwaX7L3jc09gBe25u05_1IhuOWbtsN6B9a4T7HMwP7YWbrEmQbJfq991WKIHWptoSz_kjVxvDTFiDRv5HF-d29Nfcw-hvE_8CJIpCUp9TqiwcP89CaX1jm-8QgzKOAVsn29S8bC0pHmuv1muHPZut2DUCfQMfR8vfCXDv9bqY3nm9VHh32C-r2dLIBGXoGHMkOo-aZ0bmrdk-wyt0xNR7SV_tv0Ua6bsx80n3KuHxCOTXwVMxnQSmmkpm1JbwPEduB21FNZZE-uICSw-Hy0]--></g></svg>