<?xml version="1.0" encoding="us-ascii" standalone="no"?><svg xmlns="http://www.w3.org/2000/svg" xmlns:xlink="http://www.w3.org/1999/xlink" contentStyleType="text/css" height="1451px" preserveAspectRatio="none" style="width:2013px;height:1451px;background:#FFFFFF;" version="1.1" viewBox="0 0 2013 1451" width="2013px" zoomAndPan="magnify"><defs/><g><line style="stroke:#181818;stroke-width:0.5;stroke-dasharray:5.0,5.0;" x1="97" x2="97" y1="84.1201" y2="1367.5767"/><line style="stroke:#181818;stroke-width:0.5;stroke-dasharray:5.0,5.0;" x1="186" x2="186" y1="84.1201" y2="1367.5767"/><line style="stroke:#181818;stroke-width:0.5;stroke-dasharray:5.0,5.0;" x1="370" x2="370" y1="84.1201" y2="1367.5767"/><line style="stroke:#181818;stroke-width:0.5;stroke-dasharray:5.0,5.0;" x1="528" x2="528" y1="84.1201" y2="1367.5767"/><line style="stroke:#181818;stroke-width:0.5;stroke-dasharray:5.0,5.0;" x1="744.5" x2="744.5" y1="84.1201" y2="1367.5767"/><line style="stroke:#181818;stroke-width:0.5;stroke-dasharray:5.0,5.0;" x1="930.5" x2="930.5" y1="84.1201" y2="1367.5767"/><line style="stroke:#181818;stroke-width:0.5;stroke-dasharray:5.0,5.0;" x1="1072.5" x2="1072.5" y1="84.1201" y2="1367.5767"/><line style="stroke:#181818;stroke-width:0.5;stroke-dasharray:5.0,5.0;" x1="1203.5" x2="1203.5" y1="84.1201" y2="1367.5767"/><line style="stroke:#181818;stroke-width:0.5;stroke-dasharray:5.0,5.0;" x1="1294.5" x2="1294.5" y1="84.1201" y2="1367.5767"/><line style="stroke:#181818;stroke-width:0.5;stroke-dasharray:5.0,5.0;" x1="1461.5" x2="1461.5" y1="84.1201" y2="1367.5767"/><text fill="#000000" font-family="sans-serif" font-size="14" lengthAdjust="spacing" textLength="33" x="78" y="81.0439">Actor</text><ellipse cx="97.5" cy="13.5" fill="#E2E2F0" rx="8" ry="8" style="stroke:#181818;stroke-width:0.5;"/><path d="M97.5,21.5 L97.5,48.5 M84.5,29.5 L110.5,29.5 M97.5,48.5 L84.5,63.5 M97.5,48.5 L110.5,63.5 " fill="none" style="stroke:#181818;stroke-width:0.5;"/><text fill="#000000" font-family="sans-serif" font-size="14" lengthAdjust="spacing" textLength="33" x="78" y="1382.6206">Actor</text><ellipse cx="97.5" cy="1394.1968" fill="#E2E2F0" rx="8" ry="8" style="stroke:#181818;stroke-width:0.5;"/><path d="M97.5,1402.1968 L97.5,1429.1968 M84.5,1410.1968 L110.5,1410.1968 M97.5,1429.1968 L84.5,1444.1968 M97.5,1429.1968 L110.5,1444.1968 " fill="none" style="stroke:#181818;stroke-width:0.5;"/><rect fill="#E2E2F0" height="33.1201" rx="2.5" ry="2.5" style="stroke:#181818;stroke-width:0.5;" width="105" x="134" y="50"/><text fill="#000000" font-family="sans-serif" font-size="14" lengthAdjust="spacing" textLength="91" x="141" y="73.0439">IjkMediaPlayer</text><rect fill="#E2E2F0" height="33.1201" rx="2.5" ry="2.5" style="stroke:#181818;stroke-width:0.5;" width="105" x="134" y="1366.5767"/><text fill="#000000" font-family="sans-serif" font-size="14" lengthAdjust="spacing" textLength="91" x="141" y="1389.6206">IjkMediaPlayer</text><rect fill="#E2E2F0" height="33.1201" rx="2.5" ry="2.5" style="stroke:#181818;stroke-width:0.5;" width="99" x="321" y="50"/><text fill="#000000" font-family="sans-serif" font-size="14" lengthAdjust="spacing" textLength="85" x="328" y="73.0439">ijkplayer_jni.c</text><rect fill="#E2E2F0" height="33.1201" rx="2.5" ry="2.5" style="stroke:#181818;stroke-width:0.5;" width="99" x="321" y="1366.5767"/><text fill="#000000" font-family="sans-serif" font-size="14" lengthAdjust="spacing" textLength="85" x="328" y="1389.6206">ijkplayer_jni.c</text><rect fill="#E2E2F0" height="33.1201" rx="2.5" ry="2.5" style="stroke:#181818;stroke-width:0.5;" width="133" x="462" y="50"/><text fill="#000000" font-family="sans-serif" font-size="14" lengthAdjust="spacing" textLength="119" x="469" y="73.0439">ijkplayer_android.c</text><rect fill="#E2E2F0" height="33.1201" rx="2.5" ry="2.5" style="stroke:#181818;stroke-width:0.5;" width="133" x="462" y="1366.5767"/><text fill="#000000" font-family="sans-serif" font-size="14" lengthAdjust="spacing" textLength="119" x="469" y="1389.6206">ijkplayer_android.c</text><rect fill="#E2E2F0" height="33.1201" rx="2.5" ry="2.5" style="stroke:#181818;stroke-width:0.5;" width="116" x="686.5" y="50"/><text fill="#000000" font-family="sans-serif" font-size="14" lengthAdjust="spacing" textLength="102" x="693.5" y="73.0439">ffpipe_android.c</text><rect fill="#E2E2F0" height="33.1201" rx="2.5" ry="2.5" style="stroke:#181818;stroke-width:0.5;" width="116" x="686.5" y="1366.5767"/><text fill="#000000" font-family="sans-serif" font-size="14" lengthAdjust="spacing" textLength="102" x="693.5" y="1389.6206">ffpipe_android.c</text><rect fill="#E2E2F0" height="33.1201" rx="2.5" ry="2.5" style="stroke:#181818;stroke-width:0.5;" width="98" x="881.5" y="50"/><text fill="#000000" font-family="sans-serif" font-size="14" lengthAdjust="spacing" textLength="84" x="888.5" y="73.0439">ff_ffpipeline.c</text><rect fill="#E2E2F0" height="33.1201" rx="2.5" ry="2.5" style="stroke:#181818;stroke-width:0.5;" width="98" x="881.5" y="1366.5767"/><text fill="#000000" font-family="sans-serif" font-size="14" lengthAdjust="spacing" textLength="84" x="888.5" y="1389.6206">ff_ffpipeline.c</text><rect fill="#E2E2F0" height="33.1201" rx="2.5" ry="2.5" style="stroke:#181818;stroke-width:0.5;" width="166" x="989.5" y="50"/><text fill="#000000" font-family="sans-serif" font-size="14" lengthAdjust="spacing" textLength="152" x="996.5" y="73.0439">ffpipelinef_ffplay_vdec.c</text><rect fill="#E2E2F0" height="33.1201" rx="2.5" ry="2.5" style="stroke:#181818;stroke-width:0.5;" width="166" x="989.5" y="1366.5767"/><text fill="#000000" font-family="sans-serif" font-size="14" lengthAdjust="spacing" textLength="152" x="996.5" y="1389.6206">ffpipelinef_ffplay_vdec.c</text><rect fill="#E2E2F0" height="33.1201" rx="2.5" ry="2.5" style="stroke:#181818;stroke-width:0.5;" width="77" x="1165.5" y="50"/><text fill="#000000" font-family="sans-serif" font-size="14" lengthAdjust="spacing" textLength="63" x="1172.5" y="73.0439">ijkplayer.c</text><rect fill="#E2E2F0" height="33.1201" rx="2.5" ry="2.5" style="stroke:#181818;stroke-width:0.5;" width="77" x="1165.5" y="1366.5767"/><text fill="#000000" font-family="sans-serif" font-size="14" lengthAdjust="spacing" textLength="63" x="1172.5" y="1389.6206">ijkplayer.c</text><rect fill="#E2E2F0" height="33.1201" rx="2.5" ry="2.5" style="stroke:#181818;stroke-width:0.5;" width="75" x="1257.5" y="50"/><text fill="#000000" font-family="sans-serif" font-size="14" lengthAdjust="spacing" textLength="61" x="1264.5" y="73.0439">ff_ffplay.c</text><rect fill="#E2E2F0" height="33.1201" rx="2.5" ry="2.5" style="stroke:#181818;stroke-width:0.5;" width="75" x="1257.5" y="1366.5767"/><text fill="#000000" font-family="sans-serif" font-size="14" lengthAdjust="spacing" textLength="61" x="1264.5" y="1389.6206">ff_ffplay.c</text><rect fill="#E2E2F0" height="33.1201" rx="2.5" ry="2.5" style="stroke:#181818;stroke-width:0.5;" width="238" x="1342.5" y="50"/><text fill="#000000" font-family="sans-serif" font-size="14" lengthAdjust="spacing" textLength="224" x="1349.5" y="73.0439">ijksdl_vout_android_nativewindow.c</text><rect fill="#E2E2F0" height="33.1201" rx="2.5" ry="2.5" style="stroke:#181818;stroke-width:0.5;" width="238" x="1342.5" y="1366.5767"/><text fill="#000000" font-family="sans-serif" font-size="14" lengthAdjust="spacing" textLength="224" x="1349.5" y="1389.6206">ijksdl_vout_android_nativewindow.c</text><polygon fill="#181818" points="174.5,134.6289,184.5,138.6289,174.5,142.6289,178.5,138.6289" style="stroke:#181818;stroke-width:1.0;"/><line style="stroke:#181818;stroke-width:1.0;" x1="97.5" x2="180.5" y1="138.6289" y2="138.6289"/><text fill="#000000" font-family="sans-serif" font-size="13" font-weight="bold" lengthAdjust="spacing" textLength="7" x="104.5" y="133.7725">1</text><text fill="#000000" font-family="sans-serif" font-size="13" lengthAdjust="spacing" textLength="54" x="115.5" y="133.7725">initPlayer</text><path d="M191,99.1201 L191,162.1201 L327,162.1201 L327,109.1201 L317,99.1201 L191,99.1201 " fill="#FEFFDD" style="stroke:#181818;stroke-width:0.5;"/><path d="M317,99.1201 L317,109.1201 L327,109.1201 L317,99.1201 " fill="#FEFFDD" style="stroke:#181818;stroke-width:0.5;"/><text fill="#000000" font-family="sans-serif" font-size="13" lengthAdjust="spacing" textLength="115" x="197" y="119.0181">1.loadLibrariesOnce</text><text fill="#000000" font-family="sans-serif" font-size="13" lengthAdjust="spacing" textLength="94" x="201" y="136.7725">2.initNativeOnce</text><text fill="#000000" font-family="sans-serif" font-size="13" lengthAdjust="spacing" textLength="83" x="201" y="154.5269">3.native_setup</text><line style="stroke:#181818;stroke-width:1.0;" x1="186.5" x2="228.5" y1="191.1377" y2="191.1377"/><line style="stroke:#181818;stroke-width:1.0;" x1="228.5" x2="228.5" y1="191.1377" y2="204.1377"/><line style="stroke:#181818;stroke-width:1.0;" x1="187.5" x2="228.5" y1="204.1377" y2="204.1377"/><polygon fill="#181818" points="197.5,200.1377,187.5,204.1377,197.5,208.1377,193.5,204.1377" style="stroke:#181818;stroke-width:1.0;"/><text fill="#000000" font-family="sans-serif" font-size="13" font-weight="bold" lengthAdjust="spacing" textLength="7" x="193.5" y="186.2813">2</text><text fill="#000000" font-family="sans-serif" font-size="13" lengthAdjust="spacing" textLength="104" x="204.5" y="186.2813">loadLibrariesOnce</text><path d="M5,175.8833 L5,202.8833 L182,202.8833 L182,185.8833 L172,175.8833 L5,175.8833 " fill="#FEFFDD" style="stroke:#181818;stroke-width:0.5;"/><path d="M172,175.8833 L172,185.8833 L182,185.8833 L172,175.8833 " fill="#FEFFDD" style="stroke:#181818;stroke-width:0.5;"/><text fill="#000000" font-family="sans-serif" font-size="13" lengthAdjust="spacing" textLength="156" x="11" y="195.7813">1.load_ijkplayer/a4ijkplayer</text><polygon fill="#181818" points="358.5,234.8921,368.5,238.8921,358.5,242.8921,362.5,238.8921" style="stroke:#181818;stroke-width:1.0;"/><line style="stroke:#181818;stroke-width:1.0;" x1="186.5" x2="364.5" y1="238.8921" y2="238.8921"/><text fill="#000000" font-family="sans-serif" font-size="13" font-weight="bold" lengthAdjust="spacing" textLength="7" x="193.5" y="234.0356">3</text><text fill="#000000" font-family="sans-serif" font-size="13" lengthAdjust="spacing" textLength="149" x="204.5" y="234.0356">IjkMediaPlayer_native_init</text><path d="M375,217.1377 L375,244.1377 L461,244.1377 L461,227.1377 L451,217.1377 L375,217.1377 " fill="#FEFFDD" style="stroke:#181818;stroke-width:0.5;"/><path d="M451,217.1377 L451,227.1377 L461,227.1377 L451,217.1377 " fill="#FEFFDD" style="stroke:#181818;stroke-width:0.5;"/><text fill="#000000" font-family="sans-serif" font-size="13" lengthAdjust="spacing" textLength="65" x="381" y="237.0356">&#21021;&#22987;&#21270;&#25968;&#25454;</text><polygon fill="#181818" points="358.5,269.6465,368.5,273.6465,358.5,277.6465,362.5,273.6465" style="stroke:#181818;stroke-width:1.0;"/><line style="stroke:#181818;stroke-width:1.0;" x1="186.5" x2="364.5" y1="273.6465" y2="273.6465"/><text fill="#000000" font-family="sans-serif" font-size="13" font-weight="bold" lengthAdjust="spacing" textLength="7" x="193.5" y="268.79">4</text><text fill="#000000" font-family="sans-serif" font-size="13" lengthAdjust="spacing" textLength="72" x="204.5" y="268.79">native_setup</text><polygon fill="#181818" points="1192,348.7869,1202,352.7869,1192,356.7869,1196,352.7869" style="stroke:#181818;stroke-width:1.0;"/><line style="stroke:#181818;stroke-width:1.0;" x1="370.5" x2="1198" y1="352.7869" y2="352.7869"/><text fill="#000000" font-family="sans-serif" font-size="13" font-weight="bold" lengthAdjust="spacing" textLength="7" x="377.5" y="347.9304">5</text><text fill="#000000" font-family="sans-serif" font-size="13" lengthAdjust="spacing" textLength="164" x="388.5" y="347.9304">IjkMediaPlayer_native_setup</text><path d="M50,286.6465 L50,402.6465 L365,402.6465 L365,296.6465 L355,286.6465 L50,286.6465 " fill="#FEFFDD" style="stroke:#181818;stroke-width:0.5;"/><path d="M355,286.6465 L355,296.6465 L365,296.6465 L355,286.6465 " fill="#FEFFDD" style="stroke:#181818;stroke-width:0.5;"/><text fill="#000000" font-family="sans-serif" font-size="13" lengthAdjust="spacing" textLength="134" x="56" y="306.5444">1.ijkmp_android_create</text><text fill="#000000" font-family="sans-serif" font-size="13" lengthAdjust="spacing" textLength="133" x="60" y="324.2988">2.jni_set_media_player</text><text fill="#000000" font-family="sans-serif" font-size="13" lengthAdjust="spacing" textLength="132" x="60" y="342.0532">3.ijkmp_set_weak_thiz</text><text fill="#000000" font-family="sans-serif" font-size="13" lengthAdjust="spacing" textLength="154" x="60" y="359.8076">4.ijkmp_set_inject_opaque</text><text fill="#000000" font-family="sans-serif" font-size="13" lengthAdjust="spacing" textLength="184" x="60" y="377.562">5.ijkmp_set_ijkio_inject_opaque</text><text fill="#000000" font-family="sans-serif" font-size="13" lengthAdjust="spacing" textLength="290" x="60" y="395.3164">6.ijkmp_android_set_mediacodec_select_callback</text><polygon fill="#181818" points="516.5,457.5588,526.5,461.5588,516.5,465.5588,520.5,461.5588" style="stroke:#181818;stroke-width:1.0;"/><line style="stroke:#181818;stroke-width:1.0;" x1="370.5" x2="522.5" y1="461.5588" y2="461.5588"/><text fill="#000000" font-family="sans-serif" font-size="13" font-weight="bold" lengthAdjust="spacing" textLength="7" x="377.5" y="456.7024">6</text><text fill="#000000" font-family="sans-serif" font-size="13" lengthAdjust="spacing" textLength="123" x="388.5" y="456.7024">ijkmp_android_create</text><path d="M74,413.1729 L74,494.1729 L365,494.1729 L365,423.1729 L355,413.1729 L74,413.1729 " fill="#FEFFDD" style="stroke:#181818;stroke-width:0.5;"/><path d="M355,413.1729 L355,423.1729 L365,423.1729 L355,413.1729 " fill="#FEFFDD" style="stroke:#181818;stroke-width:0.5;"/><text fill="#000000" font-family="sans-serif" font-size="13" lengthAdjust="spacing" textLength="11" x="80" y="433.0708">1.</text><text fill="#FF0000" font-family="sans-serif" font-size="13" lengthAdjust="spacing" textLength="169" x="91" y="433.0708">ijkmp_create:&#21019;&#24314;&#26680;&#24515;&#25773;&#25918;&#22120;</text><text fill="#000000" font-family="sans-serif" font-size="13" lengthAdjust="spacing" textLength="266" x="84" y="450.8252">2.SDL_VoutAndroid_CreateForAndroidSurface</text><text fill="#000000" font-family="sans-serif" font-size="13" lengthAdjust="spacing" textLength="11" x="84" y="468.5796">3.</text><text fill="#FF0000" font-family="sans-serif" font-size="13" lengthAdjust="spacing" textLength="174" x="95" y="468.5796">ffpipeline_create_from_android</text><text fill="#000000" font-family="sans-serif" font-size="13" lengthAdjust="spacing" textLength="116" x="84" y="486.334">4.ffpipeline_set_vout</text><polygon fill="#181818" points="1192,539.6992,1202,543.6992,1192,547.6992,1196,543.6992" style="stroke:#181818;stroke-width:1.0;"/><line style="stroke:#181818;stroke-width:1.0;" x1="528.5" x2="1198" y1="543.6992" y2="543.6992"/><text fill="#000000" font-family="sans-serif" font-size="13" font-weight="bold" lengthAdjust="spacing" textLength="7" x="535.5" y="538.8428">7</text><text fill="#000000" font-family="sans-serif" font-size="13" lengthAdjust="spacing" textLength="74" x="546.5" y="538.8428">ijkmp_create</text><path d="M1209,504.1904 L1209,567.1904 L1392,567.1904 L1392,514.1904 L1382,504.1904 L1209,504.1904 " fill="#FEFFDD" style="stroke:#181818;stroke-width:0.5;"/><path d="M1382,504.1904 L1382,514.1904 L1392,514.1904 L1382,504.1904 " fill="#FEFFDD" style="stroke:#181818;stroke-width:0.5;"/><text fill="#000000" font-family="sans-serif" font-size="13" lengthAdjust="spacing" textLength="71" x="1215" y="524.0884">1.ffp_create:</text><text fill="#FF0000" font-family="sans-serif" font-size="13" lengthAdjust="spacing" textLength="91" x="1286" y="524.0884">&#21019;&#24314;&#26680;&#24515;&#25773;&#25918;&#22120;</text><text fill="#000000" font-family="sans-serif" font-size="13" lengthAdjust="spacing" textLength="71" x="1219" y="541.8428">2.msg_loop:</text><text fill="#FF0000" font-family="sans-serif" font-size="13" lengthAdjust="spacing" textLength="78" x="1290" y="541.8428">&#21019;&#24314;&#20256;&#36882;&#28040;&#24687;</text><text fill="#000000" font-family="sans-serif" font-size="13" lengthAdjust="spacing" textLength="4" x="1215" y="559.5972">&#160;</text><polygon fill="#181818" points="1283,604.0852,1293,608.0852,1283,612.0852,1287,608.0852" style="stroke:#181818;stroke-width:1.0;"/><line style="stroke:#181818;stroke-width:1.0;" x1="1204" x2="1289" y1="608.0852" y2="608.0852"/><text fill="#000000" font-family="sans-serif" font-size="13" font-weight="bold" lengthAdjust="spacing" textLength="7" x="1211" y="603.2288">8</text><text fill="#000000" font-family="sans-serif" font-size="13" lengthAdjust="spacing" textLength="56" x="1222" y="603.2288">ffp_create</text><path d="M1300,577.4536 L1300,622.4536 L1608,622.4536 L1608,587.4536 L1598,577.4536 L1300,577.4536 " fill="#FEFFDD" style="stroke:#181818;stroke-width:0.5;"/><path d="M1598,577.4536 L1598,587.4536 L1608,587.4536 L1598,577.4536 " fill="#FEFFDD" style="stroke:#181818;stroke-width:0.5;"/><text fill="#000000" font-family="sans-serif" font-size="13" lengthAdjust="spacing" textLength="71" x="1306" y="597.3516">1.ffp_create:</text><text fill="#FF0000" font-family="sans-serif" font-size="13" lengthAdjust="spacing" textLength="216" x="1377" y="597.3516">&#21019;&#24314;ffplay&#26680;&#24515;&#25773;&#25918;&#22120;,&#21021;&#22987;&#21270;&#40664;&#35748;&#21442;&#25968;</text><text fill="#000000" font-family="sans-serif" font-size="13" lengthAdjust="spacing" textLength="4" x="1306" y="615.106">&#160;</text><polygon fill="#181818" points="1449.5,677.3484,1459.5,681.3484,1449.5,685.3484,1453.5,681.3484" style="stroke:#181818;stroke-width:1.0;"/><line style="stroke:#181818;stroke-width:1.0;" x1="528.5" x2="1455.5" y1="681.3484" y2="681.3484"/><text fill="#000000" font-family="sans-serif" font-size="13" font-weight="bold" lengthAdjust="spacing" textLength="7" x="535.5" y="676.4919">9</text><text fill="#000000" font-family="sans-serif" font-size="13" lengthAdjust="spacing" textLength="257" x="546.5" y="676.4919">SDL_VoutAndroid_CreateForANativeWindow</text><path d="M1466,632.9624 L1466,713.9624 L1644,713.9624 L1644,642.9624 L1634,632.9624 L1466,632.9624 " fill="#FEFFDD" style="stroke:#181818;stroke-width:0.5;"/><path d="M1634,632.9624 L1634,642.9624 L1644,642.9624 L1634,632.9624 " fill="#FEFFDD" style="stroke:#181818;stroke-width:0.5;"/><text fill="#000000" font-family="sans-serif" font-size="13" lengthAdjust="spacing" textLength="157" x="1472" y="652.8604">1.SDL_Vout_CreateInternal</text><text fill="#000000" font-family="sans-serif" font-size="13" lengthAdjust="spacing" textLength="125" x="1476" y="670.6147">2.func_create_overlay</text><text fill="#000000" font-family="sans-serif" font-size="13" lengthAdjust="spacing" textLength="73" x="1476" y="688.3691">3.func_free_l</text><text fill="#000000" font-family="sans-serif" font-size="13" lengthAdjust="spacing" textLength="130" x="1476" y="706.1235">4.func_display_overlay</text><line style="stroke:#181818;stroke-width:1.0;" x1="1461.5" x2="1503.5" y1="742.7344" y2="742.7344"/><line style="stroke:#181818;stroke-width:1.0;" x1="1503.5" x2="1503.5" y1="742.7344" y2="755.7344"/><line style="stroke:#181818;stroke-width:1.0;" x1="1462.5" x2="1503.5" y1="755.7344" y2="755.7344"/><polygon fill="#181818" points="1472.5,751.7344,1462.5,755.7344,1472.5,759.7344,1468.5,755.7344" style="stroke:#181818;stroke-width:1.0;"/><text fill="#000000" font-family="sans-serif" font-size="13" font-weight="bold" lengthAdjust="spacing" textLength="14" x="1468.5" y="737.8779">10</text><text fill="#000000" font-family="sans-serif" font-size="13" lengthAdjust="spacing" textLength="124" x="1486.5" y="737.8779">func_create_overlay_l</text><path d="M1622,727.48 L1622,754.48 L1858,754.48 L1858,737.48 L1848,727.48 L1622,727.48 " fill="#FEFFDD" style="stroke:#181818;stroke-width:0.5;"/><path d="M1848,727.48 L1848,737.48 L1858,737.48 L1848,727.48 " fill="#FEFFDD" style="stroke:#181818;stroke-width:0.5;"/><text fill="#FF0000" font-family="sans-serif" font-size="13" lengthAdjust="spacing" textLength="215" x="1628" y="747.3779">&#20915;&#23450;&#21019;&#24314;&#31995;&#32479;&#28210;&#26579;&#36824;&#26159;ffmpeg-sdl&#28210;&#26579;</text><line style="stroke:#181818;stroke-width:1.0;" x1="1461.5" x2="1503.5" y1="787.4888" y2="787.4888"/><line style="stroke:#181818;stroke-width:1.0;" x1="1503.5" x2="1503.5" y1="787.4888" y2="800.4888"/><line style="stroke:#181818;stroke-width:1.0;" x1="1462.5" x2="1503.5" y1="800.4888" y2="800.4888"/><polygon fill="#181818" points="1472.5,796.4888,1462.5,800.4888,1472.5,804.4888,1468.5,800.4888" style="stroke:#181818;stroke-width:1.0;"/><text fill="#000000" font-family="sans-serif" font-size="13" font-weight="bold" lengthAdjust="spacing" textLength="14" x="1468.5" y="782.6323">11</text><text fill="#000000" font-family="sans-serif" font-size="13" lengthAdjust="spacing" textLength="228" x="1486.5" y="782.6323">SDL_VoutAMediaCodec_CreateOverlay</text><line style="stroke:#181818;stroke-width:1.0;" x1="1461.5" x2="1503.5" y1="837.6204" y2="837.6204"/><line style="stroke:#181818;stroke-width:1.0;" x1="1503.5" x2="1503.5" y1="837.6204" y2="850.6204"/><line style="stroke:#181818;stroke-width:1.0;" x1="1462.5" x2="1503.5" y1="850.6204" y2="850.6204"/><polygon fill="#181818" points="1472.5,846.6204,1462.5,850.6204,1472.5,854.6204,1468.5,850.6204" style="stroke:#181818;stroke-width:1.0;"/><text fill="#000000" font-family="sans-serif" font-size="13" font-weight="bold" lengthAdjust="spacing" textLength="14" x="1468.5" y="832.7639">12</text><text fill="#000000" font-family="sans-serif" font-size="13" lengthAdjust="spacing" textLength="119" x="1486.5" y="832.7639">func_display_overlay</text><path d="M1617,813.4888 L1617,858.4888 L2006,858.4888 L2006,823.4888 L1996,813.4888 L1617,813.4888 " fill="#FEFFDD" style="stroke:#181818;stroke-width:0.5;"/><path d="M1996,813.4888 L1996,823.4888 L2006,823.4888 L1996,813.4888 " fill="#FEFFDD" style="stroke:#181818;stroke-width:0.5;"/><text fill="#000000" font-family="sans-serif" font-size="13" lengthAdjust="spacing" textLength="368" x="1623" y="833.3867">1.SDL_VoutOverlayAMediaCodec_releaseFrame_l&#28210;&#26579;&#21040;&#31995;&#32479;&#31867;</text><text fill="#000000" font-family="sans-serif" font-size="13" lengthAdjust="spacing" textLength="166" x="1627" y="851.1411">2.IJK_EGL_display&#28210;&#26579;&#21040;egl</text><polygon fill="#181818" points="732.5,931.1379,742.5,935.1379,732.5,939.1379,736.5,935.1379" style="stroke:#181818;stroke-width:1.0;"/><line style="stroke:#181818;stroke-width:1.0;" x1="528.5" x2="738.5" y1="935.1379" y2="935.1379"/><text fill="#000000" font-family="sans-serif" font-size="13" font-weight="bold" lengthAdjust="spacing" textLength="14" x="535.5" y="930.2815">13</text><text fill="#000000" font-family="sans-serif" font-size="13" lengthAdjust="spacing" textLength="174" x="553.5" y="930.2815">ffpipeline_create_from_android</text><path d="M333,868.9976 L333,984.9976 L523,984.9976 L523,878.9976 L513,868.9976 L333,868.9976 " fill="#FEFFDD" style="stroke:#181818;stroke-width:0.5;"/><path d="M513,868.9976 L513,878.9976 L523,878.9976 L513,868.9976 " fill="#FEFFDD" style="stroke:#181818;stroke-width:0.5;"/><text fill="#000000" font-family="sans-serif" font-size="13" lengthAdjust="spacing" textLength="95" x="339" y="888.8955">1.ffpipeline_alloc</text><text fill="#000000" font-family="sans-serif" font-size="13" lengthAdjust="spacing" textLength="85" x="343" y="906.6499">2.func_destroy</text><text fill="#000000" font-family="sans-serif" font-size="13" lengthAdjust="spacing" textLength="11" x="343" y="924.4043">3.</text><text fill="#FF0000" font-family="sans-serif" font-size="13" lengthAdjust="spacing" textLength="148" x="354" y="924.4043">func_open_video_decoder</text><text fill="#000000" font-family="sans-serif" font-size="13" lengthAdjust="spacing" textLength="151" x="343" y="942.1587">4.func_open_audio_output</text><text fill="#000000" font-family="sans-serif" font-size="13" lengthAdjust="spacing" textLength="11" x="343" y="959.9131">5.</text><text fill="#FF0000" font-family="sans-serif" font-size="13" lengthAdjust="spacing" textLength="137" x="354" y="959.9131">func_init_video_decoder</text><text fill="#000000" font-family="sans-serif" font-size="13" lengthAdjust="spacing" textLength="11" x="343" y="977.6675">6.</text><text fill="#FF0000" font-family="sans-serif" font-size="13" lengthAdjust="spacing" textLength="154" x="354" y="977.6675">func_config_video_decoder</text><line style="stroke:#181818;stroke-width:1.0;" x1="744.5" x2="786.5" y1="1019.6555" y2="1019.6555"/><line style="stroke:#181818;stroke-width:1.0;" x1="786.5" x2="786.5" y1="1019.6555" y2="1032.6555"/><line style="stroke:#181818;stroke-width:1.0;" x1="745.5" x2="786.5" y1="1032.6555" y2="1032.6555"/><polygon fill="#181818" points="755.5,1028.6555,745.5,1032.6555,755.5,1036.6555,751.5,1032.6555" style="stroke:#181818;stroke-width:1.0;"/><text fill="#000000" font-family="sans-serif" font-size="13" font-weight="bold" lengthAdjust="spacing" textLength="14" x="751.5" y="1014.7991">14</text><text fill="#000000" font-family="sans-serif" font-size="13" lengthAdjust="spacing" textLength="137" x="769.5" y="1014.7991">func_init_video_decoder</text><path d="M918,995.5239 L918,1040.5239 L1287,1040.5239 L1287,1005.5239 L1277,995.5239 L918,995.5239 " fill="#FEFFDD" style="stroke:#181818;stroke-width:0.5;"/><path d="M1277,995.5239 L1277,1005.5239 L1287,1005.5239 L1277,995.5239 " fill="#FEFFDD" style="stroke:#181818;stroke-width:0.5;"/><text fill="#000000" font-family="sans-serif" font-size="13" lengthAdjust="spacing" textLength="233" x="924" y="1015.4219">1.avcodec_parameters_alloc:&#21021;&#22987;&#21270;&#25968;&#25454;</text><text fill="#000000" font-family="sans-serif" font-size="13" lengthAdjust="spacing" textLength="344" x="928" y="1033.1763">2.SDL_AMediaCodecJava_createByCodecName&#21019;&#24314;&#35299;&#30721;&#22120;</text><line style="stroke:#181818;stroke-width:1.0;" x1="744.5" x2="786.5" y1="1084.0415" y2="1084.0415"/><line style="stroke:#181818;stroke-width:1.0;" x1="786.5" x2="786.5" y1="1084.0415" y2="1097.0415"/><line style="stroke:#181818;stroke-width:1.0;" x1="745.5" x2="786.5" y1="1097.0415" y2="1097.0415"/><polygon fill="#181818" points="755.5,1093.0415,745.5,1097.0415,755.5,1101.0415,751.5,1097.0415" style="stroke:#181818;stroke-width:1.0;"/><text fill="#000000" font-family="sans-serif" font-size="13" font-weight="bold" lengthAdjust="spacing" textLength="14" x="751.5" y="1079.1851">15</text><text fill="#000000" font-family="sans-serif" font-size="13" lengthAdjust="spacing" textLength="154" x="769.5" y="1079.1851">func_config_video_decoder</text><path d="M208,1051.0327 L208,1114.0327 L739,1114.0327 L739,1061.0327 L729,1051.0327 L208,1051.0327 " fill="#FEFFDD" style="stroke:#181818;stroke-width:0.5;"/><path d="M729,1051.0327 L729,1061.0327 L739,1061.0327 L729,1051.0327 " fill="#FEFFDD" style="stroke:#181818;stroke-width:0.5;"/><text fill="#000000" font-family="sans-serif" font-size="13" lengthAdjust="spacing" textLength="268" x="214" y="1070.9307">1.avcodec_parameters_from_context:&#37197;&#32622;&#21442;&#25968;</text><text fill="#000000" font-family="sans-serif" font-size="13" lengthAdjust="spacing" textLength="177" x="218" y="1088.6851">2.recreate_format_l:&#37197;&#32622;format</text><text fill="#000000" font-family="sans-serif" font-size="13" lengthAdjust="spacing" textLength="11" x="218" y="1106.4395">3.</text><text fill="#FF0000" font-family="sans-serif" font-size="13" lengthAdjust="spacing" textLength="495" x="229" y="1106.4395">configure_codec_l-&gt;SDL_AMediaCodec_configure_surface-&gt;SDL_AMediaCodec_start</text><line style="stroke:#181818;stroke-width:1.0;" x1="744.5" x2="786.5" y1="1148.4275" y2="1148.4275"/><line style="stroke:#181818;stroke-width:1.0;" x1="786.5" x2="786.5" y1="1148.4275" y2="1161.4275"/><line style="stroke:#181818;stroke-width:1.0;" x1="745.5" x2="786.5" y1="1161.4275" y2="1161.4275"/><polygon fill="#181818" points="755.5,1157.4275,745.5,1161.4275,755.5,1165.4275,751.5,1161.4275" style="stroke:#181818;stroke-width:1.0;"/><text fill="#000000" font-family="sans-serif" font-size="13" font-weight="bold" lengthAdjust="spacing" textLength="14" x="751.5" y="1143.571">16</text><text fill="#000000" font-family="sans-serif" font-size="13" lengthAdjust="spacing" textLength="148" x="769.5" y="1143.571">func_open_video_decoder</text><path d="M929,1124.2959 L929,1169.2959 L1424,1169.2959 L1424,1134.2959 L1414,1124.2959 L929,1124.2959 " fill="#FEFFDD" style="stroke:#181818;stroke-width:0.5;"/><path d="M1414,1124.2959 L1414,1134.2959 L1424,1134.2959 L1414,1124.2959 " fill="#FEFFDD" style="stroke:#181818;stroke-width:0.5;"/><text fill="#000000" font-family="sans-serif" font-size="13" lengthAdjust="spacing" textLength="11" x="935" y="1144.1938">1.</text><text fill="#FF0000" font-family="sans-serif" font-size="13" lengthAdjust="spacing" textLength="379" x="946" y="1144.1938">ffpipenode_create_video_decoder_from_ffplay:&#36208;ffmpeg&#36719;&#35299;&#36825;&#19968;&#22871;</text><text fill="#000000" font-family="sans-serif" font-size="13" lengthAdjust="spacing" textLength="470" x="939" y="1161.9482">2.ffpipenode_create_video_decoder_from_android_mediacodec:&#36208;android&#31995;&#32479;&#19968;&#22871;</text><polygon fill="#181818" points="1060.5,1206.4363,1070.5,1210.4363,1060.5,1214.4363,1064.5,1210.4363" style="stroke:#181818;stroke-width:1.0;"/><line style="stroke:#181818;stroke-width:1.0;" x1="744.5" x2="1066.5" y1="1210.4363" y2="1210.4363"/><text fill="#000000" font-family="sans-serif" font-size="13" font-weight="bold" lengthAdjust="spacing" textLength="14" x="751.5" y="1205.5798">17</text><text fill="#000000" font-family="sans-serif" font-size="13" lengthAdjust="spacing" textLength="259" x="769.5" y="1205.5798">ffpipenode_create_video_decoder_from_ffplay</text><path d="M244,1179.8047 L244,1224.8047 L739,1224.8047 L739,1189.8047 L729,1179.8047 L244,1179.8047 " fill="#FEFFDD" style="stroke:#181818;stroke-width:0.5;"/><path d="M729,1179.8047 L729,1189.8047 L739,1189.8047 L729,1179.8047 " fill="#FEFFDD" style="stroke:#181818;stroke-width:0.5;"/><text fill="#000000" font-family="sans-serif" font-size="13" lengthAdjust="spacing" textLength="11" x="250" y="1199.7026">1.</text><text fill="#FF0000" font-family="sans-serif" font-size="13" lengthAdjust="spacing" textLength="379" x="261" y="1199.7026">ffpipenode_create_video_decoder_from_ffplay:&#36208;ffmpeg&#36719;&#35299;&#36825;&#19968;&#22871;</text><text fill="#000000" font-family="sans-serif" font-size="13" lengthAdjust="spacing" textLength="470" x="254" y="1217.457">2.ffpipenode_create_video_decoder_from_android_mediacodec:&#36208;android&#31995;&#32479;&#19968;&#22871;</text><line style="stroke:#181818;stroke-width:1.0;" x1="1072.5" x2="1114.5" y1="1254.0679" y2="1254.0679"/><line style="stroke:#181818;stroke-width:1.0;" x1="1114.5" x2="1114.5" y1="1254.0679" y2="1267.0679"/><line style="stroke:#181818;stroke-width:1.0;" x1="1073.5" x2="1114.5" y1="1267.0679" y2="1267.0679"/><polygon fill="#181818" points="1083.5,1263.0679,1073.5,1267.0679,1083.5,1271.0679,1079.5,1267.0679" style="stroke:#181818;stroke-width:1.0;"/><text fill="#000000" font-family="sans-serif" font-size="13" font-weight="bold" lengthAdjust="spacing" textLength="14" x="1079.5" y="1249.2114">18</text><text fill="#000000" font-family="sans-serif" font-size="13" lengthAdjust="spacing" textLength="84" x="1097.5" y="1249.2114">func_run_sync</text><line style="stroke:#181818;stroke-width:1.0;" x1="1072.5" x2="1114.5" y1="1298.8223" y2="1298.8223"/><line style="stroke:#181818;stroke-width:1.0;" x1="1114.5" x2="1114.5" y1="1298.8223" y2="1311.8223"/><line style="stroke:#181818;stroke-width:1.0;" x1="1073.5" x2="1114.5" y1="1311.8223" y2="1311.8223"/><polygon fill="#181818" points="1083.5,1307.8223,1073.5,1311.8223,1083.5,1315.8223,1079.5,1311.8223" style="stroke:#181818;stroke-width:1.0;"/><text fill="#000000" font-family="sans-serif" font-size="13" font-weight="bold" lengthAdjust="spacing" textLength="14" x="1079.5" y="1293.9658">19</text><text fill="#000000" font-family="sans-serif" font-size="13" lengthAdjust="spacing" textLength="92" x="1097.5" y="1293.9658">ffp_video_thread</text><polygon fill="#181818" points="1283,1342.5767,1293,1346.5767,1283,1350.5767,1287,1346.5767" style="stroke:#181818;stroke-width:1.0;"/><line style="stroke:#181818;stroke-width:1.0;" x1="1072.5" x2="1289" y1="1346.5767" y2="1346.5767"/><text fill="#000000" font-family="sans-serif" font-size="13" font-weight="bold" lengthAdjust="spacing" textLength="14" x="1079.5" y="1341.7202">20</text><text fill="#000000" font-family="sans-serif" font-size="13" lengthAdjust="spacing" textLength="109" x="1097.5" y="1341.7202">ffplay_video_thread</text><path d="M1300,1324.8223 L1300,1351.8223 L1520,1351.8223 L1520,1334.8223 L1510,1324.8223 L1300,1324.8223 " fill="#FEFFDD" style="stroke:#181818;stroke-width:0.5;"/><path d="M1510,1324.8223 L1510,1334.8223 L1520,1334.8223 L1510,1324.8223 " fill="#FEFFDD" style="stroke:#181818;stroke-width:0.5;"/><text fill="#FF0000" font-family="sans-serif" font-size="13" lengthAdjust="spacing" textLength="199" x="1306" y="1344.7202">&#36825;&#26159;&#35299;&#30721;&#32447;&#31243;,&#21478;&#22806;&#36215;&#32447;&#31243;&#36827;&#34892;&#35299;&#30721;</text><!--SRC=[pLTDRzn46BxxL-oDIxCb47gmgaYb49GGsagLoWLfDB77czdrpfZnU4CujKL5GMbLAK19YL23AAGNaj2g47Lfzi_4NkTVC9xNNd-iTqbwwYLQpppln_EyxxmpyItiaiPiyrtZdNXlA_xkURXpV7AyQM1BSj6uelzYls6vb31fU5X8Qb4FCzbOR7S-8pR5DroyJZJ8qxzA8Dhkm2fgCzgq4XJ3alR84gCtfi4nimMdTj7a2YpLc3cEHpqonMPX8G5KR12OkPIHeWbWbzLgJOm4h0rL4gXd4wjYgPPlgTLwKaLiBOlKCU3WTzMJRxkenmEPaKNWReqocw-1eOAajA_flS_rdc7WG78MT5TKM2XdOsO-hPb96PLfIenBqX2qjIfDrHSkn_OoNH5OKE9VPnRvWZNUQoPmS9uklT-4F91FPE0P1hWj11Zp0t5Suep2e95G5_7Sw7VHLwLrp78BfbAW9BaIYt3Zbt1lCxp_AFhnC7gmFyrZcKLbLnaKYpSXFDZcx6QRYalN6nNC4WHBa56TYGIEkeaN15bfCS4YsLeZk8FaAlrQhSyLrYbh4qiYxk4lWyJP1yMzTeVoCSIbIXwZm1PN7Qi-tGIkne6xWgrE7VcwSsZMaIknlsnnbmjJ47iUi80nmusTiFygsZqA1zz4Mtz6Fno7ZvzTlgZHyrgUcnyjerkgrzE0wAesNE0YNRWP20UdxLU8af_KD1Ho1EzcAHOYp3KBq4IEv61bn4iiS_8braMsq6kpYSkCOI6d_oVRzLl8vTmRjphvT_VqzbRqzqPqvo0toVBC4uI1OUO9d3qnCAsaTs5qRaxxs_7-q_3XNNM0nZEeAbK_Vyp9rIoDgLBEcKqANcII28PTBPWJC2ihCEyHeSBhJj3hZY04kL3ZvDkclXxPAT0mwfESd7rDDEGMaorg-ksBSFzdK7RueZ_iFucEdaTFley7sz7sWUDqFTAQKN5WDHFqt2cD1DL3wAe-nQ3JzPJb6v6iIbLRa3H2CRHG0mJxP47Whf8Uk8KRXo30yA- -BjhYqgVeuq-Mio0Z56cvazgfvY8tfn_nqlWfGDLeurRUEpRnfU3hO-CZsUCUOQX7RS8LB1cGeZmtHXWSs6hMAaMyGEenNFMKt4OJFLqQWrkSERHLRr1H2BIOf51zx78rSGzcltfZgAAfi-M3HcRbnXnDuqAzbt0Ff-9_kAvNhYaVqFJntc_3tJjgX9mxuphwfNBMfAnBhmmb-KgQf_SU35_lmwZIQGkITGWNNIoHcqBWirfyY1y8rLSwZ3ipN-6DSeWFzyyun9VgqVR6LHlllNBLnguwfZ3PEIZPWJJflH2_F8JH4xy-K0MA1uzFZcw7l_zKkeNEv32xxFFNG-8yNONp3gwdKy-Vo-OvU4nwMxprKXXLrlcZegX4qW4YOCXVPzOPJTJ53gd9LPMeNMkLFmxqVoubUEqbfaHHbnMSvE6hmV3PveNmuH_XqqVnot_WEnxinB_U1qJUxCP_]--></g></svg>