<?xml version="1.0" encoding="us-ascii" standalone="no"?><svg xmlns="http://www.w3.org/2000/svg" xmlns:xlink="http://www.w3.org/1999/xlink" contentStyleType="text/css" height="1461px" preserveAspectRatio="none" style="width:2478px;height:1461px;background:#FFFFFF;" version="1.1" viewBox="0 0 2478 1461" width="2478px" zoomAndPan="magnify"><defs/><g><line style="stroke:#181818;stroke-width:0.5;stroke-dasharray:5.0,5.0;" x1="330" x2="330" y1="83.6211" y2="1378.7168"/><line style="stroke:#181818;stroke-width:0.5;stroke-dasharray:5.0,5.0;" x1="512" x2="512" y1="83.6211" y2="1378.7168"/><line style="stroke:#181818;stroke-width:0.5;stroke-dasharray:5.0,5.0;" x1="694" x2="694" y1="83.6211" y2="1378.7168"/><line style="stroke:#181818;stroke-width:0.5;stroke-dasharray:5.0,5.0;" x1="864" x2="864" y1="83.6211" y2="1378.7168"/><line style="stroke:#181818;stroke-width:0.5;stroke-dasharray:5.0,5.0;" x1="997" x2="997" y1="83.6211" y2="1378.7168"/><line style="stroke:#181818;stroke-width:0.5;stroke-dasharray:5.0,5.0;" x1="1153.5" x2="1153.5" y1="83.6211" y2="1378.7168"/><line style="stroke:#181818;stroke-width:0.5;stroke-dasharray:5.0,5.0;" x1="1304.5" x2="1304.5" y1="83.6211" y2="1378.7168"/><line style="stroke:#181818;stroke-width:0.5;stroke-dasharray:5.0,5.0;" x1="1481" x2="1481" y1="83.6211" y2="1378.7168"/><line style="stroke:#181818;stroke-width:0.5;stroke-dasharray:5.0,5.0;" x1="1636" x2="1636" y1="83.6211" y2="1378.7168"/><line style="stroke:#181818;stroke-width:0.5;stroke-dasharray:5.0,5.0;" x1="1739" x2="1739" y1="83.6211" y2="1378.7168"/><line style="stroke:#181818;stroke-width:0.5;stroke-dasharray:5.0,5.0;" x1="1854" x2="1854" y1="83.6211" y2="1378.7168"/><line style="stroke:#181818;stroke-width:0.5;stroke-dasharray:5.0,5.0;" x1="2006" x2="2006" y1="83.6211" y2="1378.7168"/><line style="stroke:#181818;stroke-width:0.5;stroke-dasharray:5.0,5.0;" x1="2159" x2="2159" y1="83.6211" y2="1378.7168"/><line style="stroke:#181818;stroke-width:0.5;stroke-dasharray:5.0,5.0;" x1="2288" x2="2288" y1="83.6211" y2="1378.7168"/><line style="stroke:#181818;stroke-width:0.5;stroke-dasharray:5.0,5.0;" x1="2414" x2="2414" y1="83.6211" y2="1378.7168"/><text fill="#000000" font-family="sans-serif" font-size="14" lengthAdjust="spacing" textLength="33" x="311" y="80.1074">Actor</text><ellipse cx="330.5" cy="13.5" fill="#E2E2F0" rx="8" ry="8" style="stroke:#181818;stroke-width:0.5;"/><path d="M330.5,21.5 L330.5,48.5 M317.5,29.5 L343.5,29.5 M330.5,48.5 L317.5,63.5 M330.5,48.5 L343.5,63.5 " fill="none" style="stroke:#181818;stroke-width:0.5;"/><text fill="#000000" font-family="sans-serif" font-size="14" lengthAdjust="spacing" textLength="33" x="311" y="1392.8242">Actor</text><ellipse cx="330.5" cy="1404.8379" fill="#E2E2F0" rx="8" ry="8" style="stroke:#181818;stroke-width:0.5;"/><path d="M330.5,1412.8379 L330.5,1439.8379 M317.5,1420.8379 L343.5,1420.8379 M330.5,1439.8379 L317.5,1454.8379 M330.5,1439.8379 L343.5,1454.8379 " fill="none" style="stroke:#181818;stroke-width:0.5;"/><rect fill="#E2E2F0" height="32.6211" rx="2.5" ry="2.5" style="stroke:#181818;stroke-width:0.5;" width="105" x="460" y="50"/><text fill="#000000" font-family="sans-serif" font-size="14" lengthAdjust="spacing" textLength="91" x="467" y="72.1074">CameraHelper</text><rect fill="#E2E2F0" height="32.6211" rx="2.5" ry="2.5" style="stroke:#181818;stroke-width:0.5;" width="105" x="460" y="1377.7168"/><text fill="#000000" font-family="sans-serif" font-size="14" lengthAdjust="spacing" textLength="91" x="467" y="1399.8242">CameraHelper</text><rect fill="#E2E2F0" height="32.6211" rx="2.5" ry="2.5" style="stroke:#181818;stroke-width:0.5;" width="183" x="603" y="50"/><text fill="#000000" font-family="sans-serif" font-size="14" lengthAdjust="spacing" textLength="169" x="610" y="72.1074">CameraConnectionService</text><rect fill="#E2E2F0" height="32.6211" rx="2.5" ry="2.5" style="stroke:#181818;stroke-width:0.5;" width="183" x="603" y="1377.7168"/><text fill="#000000" font-family="sans-serif" font-size="14" lengthAdjust="spacing" textLength="169" x="610" y="1399.8242">CameraConnectionService</text><rect fill="#E2E2F0" height="32.6211" rx="2.5" ry="2.5" style="stroke:#181818;stroke-width:0.5;" width="136" x="796" y="50"/><text fill="#000000" font-family="sans-serif" font-size="14" lengthAdjust="spacing" textLength="122" x="803" y="72.1074">CameraConnection</text><rect fill="#E2E2F0" height="32.6211" rx="2.5" ry="2.5" style="stroke:#181818;stroke-width:0.5;" width="136" x="796" y="1377.7168"/><text fill="#000000" font-family="sans-serif" font-size="14" lengthAdjust="spacing" textLength="122" x="803" y="1399.8242">CameraConnection</text><rect fill="#E2E2F0" height="32.6211" rx="2.5" ry="2.5" style="stroke:#181818;stroke-width:0.5;" width="111" x="942" y="50"/><text fill="#000000" font-family="sans-serif" font-size="14" lengthAdjust="spacing" textLength="97" x="949" y="72.1074">CameraInternal</text><rect fill="#E2E2F0" height="32.6211" rx="2.5" ry="2.5" style="stroke:#181818;stroke-width:0.5;" width="111" x="942" y="1377.7168"/><text fill="#000000" font-family="sans-serif" font-size="14" lengthAdjust="spacing" textLength="97" x="949" y="1399.8242">CameraInternal</text><rect fill="#E2E2F0" height="32.6211" rx="2.5" ry="2.5" style="stroke:#181818;stroke-width:0.5;" width="168" x="1069.5" y="50"/><text fill="#000000" font-family="sans-serif" font-size="14" lengthAdjust="spacing" textLength="154" x="1076.5" y="72.1074">ICameraRendererHolder</text><rect fill="#E2E2F0" height="32.6211" rx="2.5" ry="2.5" style="stroke:#181818;stroke-width:0.5;" width="168" x="1069.5" y="1377.7168"/><text fill="#000000" font-family="sans-serif" font-size="14" lengthAdjust="spacing" textLength="154" x="1076.5" y="1399.8242">ICameraRendererHolder</text><rect fill="#E2E2F0" height="32.6211" rx="2.5" ry="2.5" style="stroke:#181818;stroke-width:0.5;" width="115" x="1247.5" y="50"/><text fill="#000000" font-family="sans-serif" font-size="14" lengthAdjust="spacing" textLength="101" x="1254.5" y="72.1074">RendererHolder</text><rect fill="#E2E2F0" height="32.6211" rx="2.5" ry="2.5" style="stroke:#181818;stroke-width:0.5;" width="115" x="1247.5" y="1377.7168"/><text fill="#000000" font-family="sans-serif" font-size="14" lengthAdjust="spacing" textLength="101" x="1254.5" y="1399.8242">RendererHolder</text><rect fill="#E2E2F0" height="32.6211" rx="2.5" ry="2.5" style="stroke:#181818;stroke-width:0.5;" width="88" x="1437" y="50"/><text fill="#000000" font-family="sans-serif" font-size="14" lengthAdjust="spacing" textLength="74" x="1444" y="72.1074">USBMonitor</text><rect fill="#E2E2F0" height="32.6211" rx="2.5" ry="2.5" style="stroke:#181818;stroke-width:0.5;" width="88" x="1437" y="1377.7168"/><text fill="#000000" font-family="sans-serif" font-size="14" lengthAdjust="spacing" textLength="74" x="1444" y="1399.8242">USBMonitor</text><rect fill="#E2E2F0" height="32.6211" rx="2.5" ry="2.5" style="stroke:#181818;stroke-width:0.5;" width="94" x="1589" y="50"/><text fill="#000000" font-family="sans-serif" font-size="14" lengthAdjust="spacing" textLength="80" x="1596" y="72.1074">UsbManager</text><rect fill="#E2E2F0" height="32.6211" rx="2.5" ry="2.5" style="stroke:#181818;stroke-width:0.5;" width="94" x="1589" y="1377.7168"/><text fill="#000000" font-family="sans-serif" font-size="14" lengthAdjust="spacing" textLength="80" x="1596" y="1399.8242">UsbManager</text><rect fill="#E2E2F0" height="32.6211" rx="2.5" ry="2.5" style="stroke:#181818;stroke-width:0.5;" width="92" x="1693" y="50"/><text fill="#000000" font-family="sans-serif" font-size="14" lengthAdjust="spacing" textLength="78" x="1700" y="72.1074">UVCCamera</text><rect fill="#E2E2F0" height="32.6211" rx="2.5" ry="2.5" style="stroke:#181818;stroke-width:0.5;" width="92" x="1693" y="1377.7168"/><text fill="#000000" font-family="sans-serif" font-size="14" lengthAdjust="spacing" textLength="78" x="1700" y="1399.8242">UVCCamera</text><rect fill="#E2E2F0" height="32.6211" rx="2.5" ry="2.5" style="stroke:#181818;stroke-width:0.5;" width="118" x="1795" y="50"/><text fill="#000000" font-family="sans-serif" font-size="14" lengthAdjust="spacing" textLength="104" x="1802" y="72.1074">UsbControlBlock</text><rect fill="#E2E2F0" height="32.6211" rx="2.5" ry="2.5" style="stroke:#181818;stroke-width:0.5;" width="118" x="1795" y="1377.7168"/><text fill="#000000" font-family="sans-serif" font-size="14" lengthAdjust="spacing" textLength="104" x="1802" y="1399.8242">UsbControlBlock</text><rect fill="#E2E2F0" height="32.6211" rx="2.5" ry="2.5" style="stroke:#181818;stroke-width:0.5;" width="167" x="1923" y="50"/><text fill="#000000" font-family="sans-serif" font-size="14" lengthAdjust="spacing" textLength="153" x="1930" y="72.1074">registerUVCCamera.cpp</text><rect fill="#E2E2F0" height="32.6211" rx="2.5" ry="2.5" style="stroke:#181818;stroke-width:0.5;" width="167" x="1923" y="1377.7168"/><text fill="#000000" font-family="sans-serif" font-size="14" lengthAdjust="spacing" textLength="153" x="1930" y="1399.8242">registerUVCCamera.cpp</text><rect fill="#E2E2F0" height="32.6211" rx="2.5" ry="2.5" style="stroke:#181818;stroke-width:0.5;" width="119" x="2100" y="50"/><text fill="#000000" font-family="sans-serif" font-size="14" lengthAdjust="spacing" textLength="105" x="2107" y="72.1074">UVCCamera.cpp</text><rect fill="#E2E2F0" height="32.6211" rx="2.5" ry="2.5" style="stroke:#181818;stroke-width:0.5;" width="119" x="2100" y="1377.7168"/><text fill="#000000" font-family="sans-serif" font-size="14" lengthAdjust="spacing" textLength="105" x="2107" y="1399.8242">UVCCamera.cpp</text><rect fill="#E2E2F0" height="32.6211" rx="2.5" ry="2.5" style="stroke:#181818;stroke-width:0.5;" width="118" x="2229" y="50"/><text fill="#000000" font-family="sans-serif" font-size="14" lengthAdjust="spacing" textLength="104" x="2236" y="72.1074">UVCPreview.cpp</text><rect fill="#E2E2F0" height="32.6211" rx="2.5" ry="2.5" style="stroke:#181818;stroke-width:0.5;" width="118" x="2229" y="1377.7168"/><text fill="#000000" font-family="sans-serif" font-size="14" lengthAdjust="spacing" textLength="104" x="2236" y="1399.8242">UVCPreview.cpp</text><rect fill="#E2E2F0" height="32.6211" rx="2.5" ry="2.5" style="stroke:#181818;stroke-width:0.5;" width="115" x="2357" y="50"/><text fill="#000000" font-family="sans-serif" font-size="14" lengthAdjust="spacing" textLength="101" x="2364" y="72.1074">UVCControl.cpp</text><rect fill="#E2E2F0" height="32.6211" rx="2.5" ry="2.5" style="stroke:#181818;stroke-width:0.5;" width="115" x="2357" y="1377.7168"/><text fill="#000000" font-family="sans-serif" font-size="14" lengthAdjust="spacing" textLength="101" x="2364" y="1399.8242">UVCControl.cpp</text><polygon fill="#181818" points="500.5,112.9121,510.5,116.9121,500.5,120.9121,504.5,116.9121" style="stroke:#181818;stroke-width:1.0;"/><line style="stroke:#181818;stroke-width:1.0;" x1="330.5" x2="506.5" y1="116.9121" y2="116.9121"/><text fill="#000000" font-family="sans-serif" font-size="13" font-weight="bold" lengthAdjust="spacing" textLength="7" x="337.5" y="111.6494">1</text><text fill="#000000" font-family="sans-serif" font-size="13" lengthAdjust="spacing" textLength="26" x="348.5" y="111.6494">&#26500;&#36896;</text><line style="stroke:#181818;stroke-width:1.0;" x1="512.5" x2="554.5" y1="153.3486" y2="153.3486"/><line style="stroke:#181818;stroke-width:1.0;" x1="554.5" x2="554.5" y1="153.3486" y2="166.3486"/><line style="stroke:#181818;stroke-width:1.0;" x1="513.5" x2="554.5" y1="166.3486" y2="166.3486"/><polygon fill="#181818" points="523.5,162.3486,513.5,166.3486,523.5,170.3486,519.5,166.3486" style="stroke:#181818;stroke-width:1.0;"/><text fill="#000000" font-family="sans-serif" font-size="13" font-weight="bold" lengthAdjust="spacing" textLength="7" x="519.5" y="148.0859">2</text><text fill="#000000" font-family="sans-serif" font-size="13" lengthAdjust="spacing" textLength="90" x="530.5" y="148.0859">CameraHelper()</text><path d="M214,129.9121 L214,173.9121 L507,173.9121 L507,139.9121 L497,129.9121 L214,129.9121 " fill="#FEFFDD" style="stroke:#181818;stroke-width:0.5;"/><path d="M497,129.9121 L497,139.9121 L507,139.9121 L497,129.9121 " fill="#FEFFDD" style="stroke:#181818;stroke-width:0.5;"/><text fill="#000000" font-family="sans-serif" font-size="13" lengthAdjust="spacing" textLength="149" x="220" y="148.9404">1. &#21019;&#24314;CameraHelper&#23545;&#35937;</text><text fill="#000000" font-family="sans-serif" font-size="13" lengthAdjust="spacing" textLength="272" x="220" y="166.2314">2. &#21019;&#24314;CameraConnectionService&#23545;&#35937;mService</text><polygon fill="#181818" points="682.5,198.7852,692.5,202.7852,682.5,206.7852,686.5,202.7852" style="stroke:#181818;stroke-width:1.0;"/><line style="stroke:#181818;stroke-width:1.0;" x1="512.5" x2="688.5" y1="202.7852" y2="202.7852"/><text fill="#000000" font-family="sans-serif" font-size="13" font-weight="bold" lengthAdjust="spacing" textLength="7" x="519.5" y="197.5225">3</text><text fill="#000000" font-family="sans-serif" font-size="13" lengthAdjust="spacing" textLength="96" x="530.5" y="197.5225">newConnection()</text><polygon fill="#181818" points="852,250.3672,862,254.3672,852,258.3672,856,254.3672" style="stroke:#181818;stroke-width:1.0;"/><line style="stroke:#181818;stroke-width:1.0;" x1="694.5" x2="858" y1="254.3672" y2="254.3672"/><text fill="#000000" font-family="sans-serif" font-size="13" font-weight="bold" lengthAdjust="spacing" textLength="7" x="701.5" y="249.1045">4</text><text fill="#000000" font-family="sans-serif" font-size="13" lengthAdjust="spacing" textLength="96" x="712.5" y="249.1045">newConnection()</text><path d="M359,215.7852 L359,276.7852 L689,276.7852 L689,225.7852 L679,215.7852 L359,215.7852 " fill="#FEFFDD" style="stroke:#181818;stroke-width:0.5;"/><path d="M679,215.7852 L679,225.7852 L689,225.7852 L679,215.7852 " fill="#FEFFDD" style="stroke:#181818;stroke-width:0.5;"/><text fill="#000000" font-family="sans-serif" font-size="13" lengthAdjust="spacing" textLength="144" x="365" y="234.8135">1.&#21019;&#24314;mUSBMonitor&#23545;&#35937;</text><text fill="#000000" font-family="sans-serif" font-size="13" lengthAdjust="spacing" textLength="309" x="365" y="252.1045">2.&#30417;&#21548;USB&#35774;&#22791;&#36830;&#25509;&#29366;&#24577;MyOnDeviceConnectListener</text><text fill="#000000" font-family="sans-serif" font-size="13" lengthAdjust="spacing" textLength="225" x="365" y="269.3955">3.&#30417;&#21548;&#22238;&#35843;&#29366;&#24577;&#26377;onAttach|onDetach&#31561;</text><polygon fill="#181818" points="500.5,301.9492,510.5,305.9492,500.5,309.9492,504.5,305.9492" style="stroke:#181818;stroke-width:1.0;"/><line style="stroke:#181818;stroke-width:1.0;" x1="330.5" x2="506.5" y1="305.9492" y2="305.9492"/><text fill="#000000" font-family="sans-serif" font-size="13" font-weight="bold" lengthAdjust="spacing" textLength="7" x="337.5" y="300.6865">5</text><text fill="#000000" font-family="sans-serif" font-size="13" lengthAdjust="spacing" textLength="73" x="348.5" y="300.6865">addSurface()</text><polygon fill="#181818" points="682.5,344.8857,692.5,348.8857,682.5,352.8857,686.5,348.8857" style="stroke:#181818;stroke-width:1.0;"/><line style="stroke:#181818;stroke-width:1.0;" x1="512.5" x2="688.5" y1="348.8857" y2="348.8857"/><text fill="#000000" font-family="sans-serif" font-size="13" font-weight="bold" lengthAdjust="spacing" textLength="7" x="519.5" y="343.623">6</text><text fill="#000000" font-family="sans-serif" font-size="13" lengthAdjust="spacing" textLength="73" x="530.5" y="343.623">addSurface()</text><path d="M196,318.9492 L196,362.9492 L507,362.9492 L507,328.9492 L497,318.9492 L196,318.9492 " fill="#FEFFDD" style="stroke:#181818;stroke-width:0.5;"/><path d="M497,318.9492 L497,328.9492 L507,328.9492 L497,318.9492 " fill="#FEFFDD" style="stroke:#181818;stroke-width:0.5;"/><text fill="#000000" font-family="sans-serif" font-size="13" lengthAdjust="spacing" textLength="173" x="202" y="337.9775">1.CameraInternal.addsurface()</text><text fill="#000000" font-family="sans-serif" font-size="13" lengthAdjust="spacing" textLength="290" x="202" y="355.2686">2.&#20854;&#23454;&#26159;&#36890;&#36807;ICameraRendererHolder.addSurface()</text><polygon fill="#181818" points="1141.5,387.8223,1151.5,391.8223,1141.5,395.8223,1145.5,391.8223" style="stroke:#181818;stroke-width:1.0;"/><line style="stroke:#181818;stroke-width:1.0;" x1="694.5" x2="1147.5" y1="391.8223" y2="391.8223"/><text fill="#000000" font-family="sans-serif" font-size="13" font-weight="bold" lengthAdjust="spacing" textLength="7" x="701.5" y="386.5596">7</text><text fill="#000000" font-family="sans-serif" font-size="13" lengthAdjust="spacing" textLength="104" x="712.5" y="386.5596">addSlaveSurface()</text><polygon fill="#181818" points="1293,419.1133,1303,423.1133,1293,427.1133,1297,423.1133" style="stroke:#181818;stroke-width:1.0;"/><line style="stroke:#181818;stroke-width:1.0;" x1="1153.5" x2="1299" y1="423.1133" y2="423.1133"/><text fill="#000000" font-family="sans-serif" font-size="13" font-weight="bold" lengthAdjust="spacing" textLength="7" x="1160.5" y="417.8506">8</text><text fill="#000000" font-family="sans-serif" font-size="13" lengthAdjust="spacing" textLength="104" x="1171.5" y="417.8506">addSlaveSurface()</text><line style="stroke:#181818;stroke-width:1.0;" x1="1305" x2="1347" y1="454.4043" y2="454.4043"/><line style="stroke:#181818;stroke-width:1.0;" x1="1347" x2="1347" y1="454.4043" y2="467.4043"/><line style="stroke:#181818;stroke-width:1.0;" x1="1306" x2="1347" y1="467.4043" y2="467.4043"/><polygon fill="#181818" points="1316,463.4043,1306,467.4043,1316,471.4043,1312,467.4043" style="stroke:#181818;stroke-width:1.0;"/><text fill="#000000" font-family="sans-serif" font-size="13" font-weight="bold" lengthAdjust="spacing" textLength="7" x="1312" y="449.1416">9</text><text fill="#000000" font-family="sans-serif" font-size="13" lengthAdjust="spacing" textLength="104" x="1323" y="449.1416">addSlaveSurface()</text><line style="stroke:#181818;stroke-width:1.0;" x1="1305" x2="1347" y1="503.8408" y2="503.8408"/><line style="stroke:#181818;stroke-width:1.0;" x1="1347" x2="1347" y1="503.8408" y2="516.8408"/><line style="stroke:#181818;stroke-width:1.0;" x1="1306" x2="1347" y1="516.8408" y2="516.8408"/><polygon fill="#181818" points="1316,512.8408,1306,516.8408,1316,520.8408,1312,516.8408" style="stroke:#181818;stroke-width:1.0;"/><text fill="#000000" font-family="sans-serif" font-size="13" font-weight="bold" lengthAdjust="spacing" textLength="14" x="1312" y="498.5781">10</text><text fill="#000000" font-family="sans-serif" font-size="13" lengthAdjust="spacing" textLength="144" x="1330" y="498.5781">handleAddSlaveSurface()</text><path d="M1149,480.4043 L1149,524.4043 L1300,524.4043 L1300,490.4043 L1290,480.4043 L1149,480.4043 " fill="#FEFFDD" style="stroke:#181818;stroke-width:0.5;"/><path d="M1290,480.4043 L1290,490.4043 L1300,490.4043 L1290,480.4043 " fill="#FEFFDD" style="stroke:#181818;stroke-width:0.5;"/><text fill="#000000" font-family="sans-serif" font-size="13" lengthAdjust="spacing" textLength="130" x="1155" y="499.4326">1.&#21019;&#24314;EGLTask&#19978;&#19979;&#25991;</text><text fill="#000000" font-family="sans-serif" font-size="13" lengthAdjust="spacing" textLength="105" x="1155" y="516.7236">2.&#21019;&#24314;surface&#32441;&#29702;</text><polygon fill="#181818" points="500.5,560.9229,510.5,564.9229,500.5,568.9229,504.5,564.9229" style="stroke:#181818;stroke-width:1.0;"/><line style="stroke:#181818;stroke-width:1.0;" x1="330.5" x2="506.5" y1="564.9229" y2="564.9229"/><text fill="#000000" font-family="sans-serif" font-size="13" font-weight="bold" lengthAdjust="spacing" textLength="14" x="337.5" y="559.6602">11</text><text fill="#000000" font-family="sans-serif" font-size="13" lengthAdjust="spacing" textLength="140" x="355.5" y="559.6602">selectDevice(usbDevice)</text><path d="M5,534.9863 L5,578.9863 L326,578.9863 L326,544.9863 L316,534.9863 L5,534.9863 " fill="#FEFFDD" style="stroke:#181818;stroke-width:0.5;"/><path d="M316,534.9863 L316,544.9863 L326,544.9863 L316,534.9863 " fill="#FEFFDD" style="stroke:#181818;stroke-width:0.5;"/><text fill="#000000" font-family="sans-serif" font-size="13" lengthAdjust="spacing" textLength="300" x="11" y="554.0146">1.usbDevice&#20013;&#26377;deviceName|mProductId|mVendorId</text><text fill="#000000" font-family="sans-serif" font-size="13" lengthAdjust="spacing" textLength="102" x="11" y="571.3057">2.&#26681;&#25454;&#27492;&#30003;&#35831;&#26435;&#38480;</text><polygon fill="#181818" points="682.5,603.8594,692.5,607.8594,682.5,611.8594,686.5,607.8594" style="stroke:#181818;stroke-width:1.0;"/><line style="stroke:#181818;stroke-width:1.0;" x1="512.5" x2="688.5" y1="607.8594" y2="607.8594"/><text fill="#000000" font-family="sans-serif" font-size="13" font-weight="bold" lengthAdjust="spacing" textLength="14" x="519.5" y="602.5967">12</text><text fill="#000000" font-family="sans-serif" font-size="13" lengthAdjust="spacing" textLength="140" x="537.5" y="602.5967">selectDevice(usbDevice)</text><polygon fill="#181818" points="1469,646.7959,1479,650.7959,1469,654.7959,1473,650.7959" style="stroke:#181818;stroke-width:1.0;"/><line style="stroke:#181818;stroke-width:1.0;" x1="694.5" x2="1475" y1="650.7959" y2="650.7959"/><text fill="#000000" font-family="sans-serif" font-size="13" font-weight="bold" lengthAdjust="spacing" textLength="14" x="701.5" y="645.5332">13</text><text fill="#000000" font-family="sans-serif" font-size="13" lengthAdjust="spacing" textLength="116" x="719.5" y="645.5332">requestPermission()</text><path d="M464,620.8594 L464,664.8594 L689,664.8594 L689,630.8594 L679,620.8594 L464,620.8594 " fill="#FEFFDD" style="stroke:#181818;stroke-width:0.5;"/><path d="M679,620.8594 L679,630.8594 L689,630.8594 L679,620.8594 " fill="#FEFFDD" style="stroke:#181818;stroke-width:0.5;"/><text fill="#000000" font-family="sans-serif" font-size="13" lengthAdjust="spacing" textLength="204" x="470" y="639.8877">1.mUSBMonitor.requestPermission</text><text fill="#000000" font-family="sans-serif" font-size="13" lengthAdjust="spacing" textLength="191" x="470" y="657.1787">2.&#22914;&#26524;&#26377;&#26435;&#38480;processOpenDevice</text><line style="stroke:#181818;stroke-width:1.0;" x1="1481" x2="1523" y1="698.8779" y2="698.8779"/><line style="stroke:#181818;stroke-width:1.0;" x1="1523" x2="1523" y1="698.8779" y2="711.8779"/><line style="stroke:#181818;stroke-width:1.0;" x1="1482" x2="1523" y1="711.8779" y2="711.8779"/><polygon fill="#181818" points="1492,707.8779,1482,711.8779,1492,715.8779,1488,711.8779" style="stroke:#181818;stroke-width:1.0;"/><text fill="#000000" font-family="sans-serif" font-size="13" font-weight="bold" lengthAdjust="spacing" textLength="14" x="1488" y="693.6152">14</text><text fill="#000000" font-family="sans-serif" font-size="13" lengthAdjust="spacing" textLength="123" x="1506" y="693.6152">processOpenDevice()</text><path d="M1273,675.4414 L1273,719.4414 L1476,719.4414 L1476,685.4414 L1466,675.4414 L1273,675.4414 " fill="#FEFFDD" style="stroke:#181818;stroke-width:0.5;"/><path d="M1466,675.4414 L1466,685.4414 L1476,685.4414 L1466,675.4414 " fill="#FEFFDD" style="stroke:#181818;stroke-width:0.5;"/><text fill="#000000" font-family="sans-serif" font-size="13" lengthAdjust="spacing" textLength="102" x="1279" y="694.4697">1.ctrlBlock.open()</text><text fill="#000000" font-family="sans-serif" font-size="13" lengthAdjust="spacing" textLength="182" x="1279" y="711.7607">2.open()&#22238;&#35843;onDeviceOpen&#26041;&#27861;</text><polygon fill="#181818" points="523.5,744.3145,513.5,748.3145,523.5,752.3145,519.5,748.3145" style="stroke:#181818;stroke-width:1.0;"/><line style="stroke:#181818;stroke-width:1.0;" x1="517.5" x2="1480" y1="748.3145" y2="748.3145"/><text fill="#000000" font-family="sans-serif" font-size="13" font-weight="bold" lengthAdjust="spacing" textLength="14" x="529.5" y="743.0518">15</text><text fill="#000000" font-family="sans-serif" font-size="13" lengthAdjust="spacing" textLength="81" x="547.5" y="743.0518">openCamera()</text><polygon fill="#181818" points="682.5,775.6055,692.5,779.6055,682.5,783.6055,686.5,779.6055" style="stroke:#181818;stroke-width:1.0;"/><line style="stroke:#181818;stroke-width:1.0;" x1="512.5" x2="688.5" y1="779.6055" y2="779.6055"/><text fill="#000000" font-family="sans-serif" font-size="13" font-weight="bold" lengthAdjust="spacing" textLength="14" x="519.5" y="774.3428">16</text><text fill="#000000" font-family="sans-serif" font-size="13" lengthAdjust="spacing" textLength="81" x="537.5" y="774.3428">openCamera()</text><polygon fill="#181818" points="985.5,806.8965,995.5,810.8965,985.5,814.8965,989.5,810.8965" style="stroke:#181818;stroke-width:1.0;"/><line style="stroke:#181818;stroke-width:1.0;" x1="694.5" x2="991.5" y1="810.8965" y2="810.8965"/><text fill="#000000" font-family="sans-serif" font-size="13" font-weight="bold" lengthAdjust="spacing" textLength="14" x="701.5" y="805.6338">17</text><text fill="#000000" font-family="sans-serif" font-size="13" lengthAdjust="spacing" textLength="81" x="719.5" y="805.6338">openCamera()</text><line style="stroke:#181818;stroke-width:1.0;" x1="997.5" x2="1039.5" y1="842.1875" y2="842.1875"/><line style="stroke:#181818;stroke-width:1.0;" x1="1039.5" x2="1039.5" y1="842.1875" y2="855.1875"/><line style="stroke:#181818;stroke-width:1.0;" x1="998.5" x2="1039.5" y1="855.1875" y2="855.1875"/><polygon fill="#181818" points="1008.5,851.1875,998.5,855.1875,1008.5,859.1875,1004.5,855.1875" style="stroke:#181818;stroke-width:1.0;"/><text fill="#000000" font-family="sans-serif" font-size="13" font-weight="bold" lengthAdjust="spacing" textLength="14" x="1004.5" y="836.9248">18</text><text fill="#000000" font-family="sans-serif" font-size="13" lengthAdjust="spacing" textLength="108" x="1022.5" y="836.9248">openUVCCamera()</text><path d="M840,827.3965 L840,854.3965 L992,854.3965 L992,837.3965 L982,827.3965 L840,827.3965 " fill="#FEFFDD" style="stroke:#181818;stroke-width:0.5;"/><path d="M982,827.3965 L982,837.3965 L992,837.3965 L982,827.3965 " fill="#FEFFDD" style="stroke:#181818;stroke-width:0.5;"/><text fill="#000000" font-family="sans-serif" font-size="13" lengthAdjust="spacing" textLength="131" x="846" y="846.4248">1.&#25171;&#24320;uvccamera open</text><polygon fill="#181818" points="1727,882.4785,1737,886.4785,1727,890.4785,1731,886.4785" style="stroke:#181818;stroke-width:1.0;"/><line style="stroke:#181818;stroke-width:1.0;" x1="997.5" x2="1733" y1="886.4785" y2="886.4785"/><text fill="#000000" font-family="sans-serif" font-size="13" font-weight="bold" lengthAdjust="spacing" textLength="14" x="1004.5" y="881.2158">19</text><text fill="#000000" font-family="sans-serif" font-size="13" lengthAdjust="spacing" textLength="36" x="1022.5" y="881.2158">open()</text><polygon fill="#181818" points="1842,925.415,1852,929.415,1842,933.415,1846,929.415" style="stroke:#181818;stroke-width:1.0;"/><line style="stroke:#181818;stroke-width:1.0;" x1="1739" x2="1848" y1="929.415" y2="929.415"/><text fill="#000000" font-family="sans-serif" font-size="13" font-weight="bold" lengthAdjust="spacing" textLength="14" x="1746" y="924.1523">20</text><text fill="#000000" font-family="sans-serif" font-size="13" lengthAdjust="spacing" textLength="36" x="1764" y="924.1523">open()</text><path d="M1548,899.4785 L1548,943.4785 L1734,943.4785 L1734,909.4785 L1724,899.4785 L1548,899.4785 " fill="#FEFFDD" style="stroke:#181818;stroke-width:0.5;"/><path d="M1724,899.4785 L1724,909.4785 L1734,909.4785 L1724,899.4785 " fill="#FEFFDD" style="stroke:#181818;stroke-width:0.5;"/><text fill="#000000" font-family="sans-serif" font-size="13" lengthAdjust="spacing" textLength="165" x="1554" y="918.5068">1.mUsbManager.openDevice</text><text fill="#000000" font-family="sans-serif" font-size="13" lengthAdjust="spacing" textLength="92" x="1554" y="935.7979">2.nativeConnect</text><polygon fill="#181818" points="1994.5,968.3516,2004.5,972.3516,1994.5,976.3516,1998.5,972.3516" style="stroke:#181818;stroke-width:1.0;"/><line style="stroke:#181818;stroke-width:1.0;" x1="1854" x2="2000.5" y1="972.3516" y2="972.3516"/><text fill="#000000" font-family="sans-serif" font-size="13" font-weight="bold" lengthAdjust="spacing" textLength="14" x="1861" y="967.0889">21</text><text fill="#000000" font-family="sans-serif" font-size="13" lengthAdjust="spacing" textLength="89" x="1879" y="967.0889">nativeConnect()</text><polygon fill="#181818" points="2147.5,1019.9336,2157.5,1023.9336,2147.5,1027.9336,2151.5,1023.9336" style="stroke:#181818;stroke-width:1.0;"/><line style="stroke:#181818;stroke-width:1.0;" x1="2006.5" x2="2153.5" y1="1023.9336" y2="1023.9336"/><text fill="#000000" font-family="sans-serif" font-size="13" font-weight="bold" lengthAdjust="spacing" textLength="14" x="2013.5" y="1018.6709">22</text><text fill="#000000" font-family="sans-serif" font-size="13" lengthAdjust="spacing" textLength="54" x="2031.5" y="1018.6709">connect()</text><path d="M1765,985.3516 L1765,1046.3516 L2001,1046.3516 L2001,995.3516 L1991,985.3516 L1765,985.3516 " fill="#FEFFDD" style="stroke:#181818;stroke-width:0.5;"/><path d="M1991,985.3516 L1991,995.3516 L2001,995.3516 L1991,985.3516 " fill="#FEFFDD" style="stroke:#181818;stroke-width:0.5;"/><text fill="#000000" font-family="sans-serif" font-size="13" lengthAdjust="spacing" textLength="126" x="1771" y="1004.3799">1.uvc_init2&#36827;&#34892;&#21021;&#22987;&#21270;</text><text fill="#000000" font-family="sans-serif" font-size="13" lengthAdjust="spacing" textLength="142" x="1771" y="1021.6709">2.uvc_wrap&#36827;&#34892;&#25163;&#26564;&#33719;&#21462;</text><text fill="#000000" font-family="sans-serif" font-size="13" lengthAdjust="spacing" textLength="215" x="1771" y="1038.9619">3.&#21019;&#24314;UVCPreview&#65292;&#21019;&#24314;UVCControl</text><polygon fill="#181818" points="2276,1083.1611,2286,1087.1611,2276,1091.1611,2280,1087.1611" style="stroke:#181818;stroke-width:1.0;"/><line style="stroke:#181818;stroke-width:1.0;" x1="2159.5" x2="2282" y1="1087.1611" y2="1087.1611"/><text fill="#000000" font-family="sans-serif" font-size="13" font-weight="bold" lengthAdjust="spacing" textLength="14" x="2166.5" y="1081.8984">23</text><text fill="#000000" font-family="sans-serif" font-size="13" lengthAdjust="spacing" textLength="26" x="2184.5" y="1081.8984">&#26500;&#36896;</text><path d="M1966,1057.2246 L1966,1101.2246 L2154,1101.2246 L2154,1067.2246 L2144,1057.2246 L1966,1057.2246 " fill="#FEFFDD" style="stroke:#181818;stroke-width:0.5;"/><path d="M2144,1057.2246 L2144,1067.2246 L2154,1067.2246 L2144,1057.2246 " fill="#FEFFDD" style="stroke:#181818;stroke-width:0.5;"/><text fill="#000000" font-family="sans-serif" font-size="13" lengthAdjust="spacing" textLength="166" x="1972" y="1076.2529">1.&#21019;&#24314;&#39044;&#35272;&#32447;&#31243;preview_sync</text><text fill="#000000" font-family="sans-serif" font-size="13" lengthAdjust="spacing" textLength="167" x="1972" y="1093.5439">2.&#21019;&#24314;&#37319;&#38598;&#32447;&#31243;capture_sync</text><line style="stroke:#181818;stroke-width:1.0;" x1="997.5" x2="1039.5" y1="1130.0977" y2="1130.0977"/><line style="stroke:#181818;stroke-width:1.0;" x1="1039.5" x2="1039.5" y1="1130.0977" y2="1143.0977"/><line style="stroke:#181818;stroke-width:1.0;" x1="998.5" x2="1039.5" y1="1143.0977" y2="1143.0977"/><polygon fill="#181818" points="1008.5,1139.0977,998.5,1143.0977,1008.5,1147.0977,1004.5,1143.0977" style="stroke:#181818;stroke-width:1.0;"/><text fill="#000000" font-family="sans-serif" font-size="13" font-weight="bold" lengthAdjust="spacing" textLength="14" x="1004.5" y="1124.835">24</text><text fill="#000000" font-family="sans-serif" font-size="13" lengthAdjust="spacing" textLength="106" x="1022.5" y="1124.835">setPreviewConfig()</text><line style="stroke:#181818;stroke-width:1.0;" x1="997.5" x2="1039.5" y1="1214.1162" y2="1214.1162"/><line style="stroke:#181818;stroke-width:1.0;" x1="1039.5" x2="1039.5" y1="1214.1162" y2="1227.1162"/><line style="stroke:#181818;stroke-width:1.0;" x1="998.5" x2="1039.5" y1="1227.1162" y2="1227.1162"/><polygon fill="#181818" points="1008.5,1223.1162,998.5,1227.1162,1008.5,1231.1162,1004.5,1227.1162" style="stroke:#181818;stroke-width:1.0;"/><text fill="#000000" font-family="sans-serif" font-size="13" font-weight="bold" lengthAdjust="spacing" textLength="14" x="1004.5" y="1208.8535">25</text><text fill="#000000" font-family="sans-serif" font-size="13" lengthAdjust="spacing" textLength="124" x="1022.5" y="1208.8535">createImageCapture()</text><path d="M570,1156.0977 L570,1269.0977 L992,1269.0977 L992,1166.0977 L982,1156.0977 L570,1156.0977 " fill="#FEFFDD" style="stroke:#181818;stroke-width:0.5;"/><path d="M982,1156.0977 L982,1166.0977 L992,1166.0977 L982,1156.0977 " fill="#FEFFDD" style="stroke:#181818;stroke-width:0.5;"/><text fill="#000000" font-family="sans-serif" font-size="13" lengthAdjust="spacing" textLength="196" x="576" y="1175.126">1.createImageCapture&#21019;&#24314;capture</text><text fill="#000000" font-family="sans-serif" font-size="13" lengthAdjust="spacing" textLength="11" x="576" y="1192.417">2.</text><text fill="#FF0000" font-family="sans-serif" font-size="13" lengthAdjust="spacing" textLength="195" x="587" y="1192.417">VideoCapture&#21019;&#24314;&#65292;&#26681;&#25454;&#25668;&#20687;&#22836;&#26469;</text><text fill="#000000" font-family="sans-serif" font-size="13" lengthAdjust="spacing" textLength="127" x="576" y="1209.708">3.onCameraOpen&#22238;&#35843;</text><text fill="#000000" font-family="sans-serif" font-size="13" lengthAdjust="spacing" textLength="11" x="576" y="1226.999">4.</text><text fill="#FF0000" font-family="sans-serif" font-size="13" lengthAdjust="spacing" textLength="164" x="587" y="1226.999">&#37324;&#38754;&#21019;&#24314;&#20102;video&#32447;&#31243;&#21644;audio</text><text fill="#000000" font-family="sans-serif" font-size="13" lengthAdjust="spacing" textLength="11" x="576" y="1244.29">5.</text><text fill="#FF0000" font-family="sans-serif" font-size="13" lengthAdjust="spacing" textLength="390" x="587" y="1244.29">video&#30340;&#25968;&#25454;&#26469;&#33258;&#20110;&#32465;&#23450;&#30340;surface&#20316;&#20026;&#36755;&#20837;&#65292;MediaCodec&#30452;&#25509;&#21462;&#20986;&#26469;</text><text fill="#000000" font-family="sans-serif" font-size="13" lengthAdjust="spacing" textLength="11" x="576" y="1261.5811">6.</text><text fill="#FF0000" font-family="sans-serif" font-size="13" lengthAdjust="spacing" textLength="358" x="587" y="1261.5811">Audio&#30340;&#25968;&#25454;&#26469;&#33258;&#20110;&#25163;&#26426;&#31995;&#32479;&#24405;&#21046;,&#28982;&#21518;&#21512;&#24182;&#25104;MP4(H264+AAC)</text><polygon fill="#181818" points="523.5,1294.1348,513.5,1298.1348,523.5,1302.1348,519.5,1298.1348" style="stroke:#181818;stroke-width:1.0;"/><line style="stroke:#181818;stroke-width:1.0;" x1="517.5" x2="996.5" y1="1298.1348" y2="1298.1348"/><text fill="#000000" font-family="sans-serif" font-size="13" font-weight="bold" lengthAdjust="spacing" textLength="14" x="529.5" y="1292.8721">26</text><text fill="#000000" font-family="sans-serif" font-size="13" lengthAdjust="spacing" textLength="78" x="547.5" y="1292.8721">startPreview()</text><polygon fill="#181818" points="1727,1325.4258,1737,1329.4258,1727,1333.4258,1731,1329.4258" style="stroke:#181818;stroke-width:1.0;"/><line style="stroke:#181818;stroke-width:1.0;" x1="512.5" x2="1733" y1="1329.4258" y2="1329.4258"/><text fill="#000000" font-family="sans-serif" font-size="13" font-weight="bold" lengthAdjust="spacing" textLength="14" x="519.5" y="1324.1631">27</text><text fill="#000000" font-family="sans-serif" font-size="13" lengthAdjust="spacing" textLength="78" x="537.5" y="1324.1631">startPreview()</text><polygon fill="#181818" points="2276,1356.7168,2286,1360.7168,2276,1364.7168,2280,1360.7168" style="stroke:#181818;stroke-width:1.0;"/><line style="stroke:#181818;stroke-width:1.0;" x1="1739" x2="2282" y1="1360.7168" y2="1360.7168"/><text fill="#000000" font-family="sans-serif" font-size="13" font-weight="bold" lengthAdjust="spacing" textLength="14" x="1746" y="1355.4541">28</text><text fill="#000000" font-family="sans-serif" font-size="13" lengthAdjust="spacing" textLength="78" x="1764" y="1355.4541">startPreview()</text><!--SRC=[jLPTJnj757tVN-6t4hLr6vhcmOgG75eLfD2WqlA4X2Qp0rbbFUlEheqYyK2BWqsWn2G5jHZ8Xw1KLO6qH0HC0d_6ixj-wb_epCxOkxExXhxqnTgTUywzP-_S3ziGc2XpFVkfze6_zzHV_9ispbldIng0ZaKo-U0Ns1be6WWxMX4Gnu164M0dCmWAY80XP1QHW4JUKu235iO8EeQ5nn0f6n1nZYqUBuM7lkLP2deOEuXWO7AiUgA0XuNj6uHrH10PianTQ4yrADGavnBmTsEtHonioDoLx7loJGMnOu31jF0MlgcWyK4XBS1qNk9-M68SOfctJGi-aCwYHmgSe6d3PhdfEil2Of6JC72CCffCsDFrn5WzqQC4bGqqauHBGyAxq9tYNXWq3PGS2vSAzrYcH5LcFXvGYY_dRbVQSoyqBNgO04NBj- -QXYq7PKmqvUHOCsHehK7Fcb48FJpr_tevWVjLOwAg1QuWtv8QPCNdC9e9kIo-9WsXJcbE81MbGaiXBBXGfzTOfVK_cSK_EASxLVzYsrtPzHuVktC_Z3oyYxz0F9pqV8TVEKPa0dycURInxR-U5t1tSz72USS1yFwinOZymTjVr7hb7-ZwM8bC0OYOt5u9K43ADwaDd6L0kmFatqKV7TE3RVUNm_RSXdzHJMtThE8zcjjKU23616KKSj971NDm9VF_eDm7M3THFa4CyzOfXI-_klCji1-qJXwtJfRSzMgGiS0Ya-WrJxtwWjRpycnaie8GrT77HfTuKaDrZrid-wmuzE3vQ-PbjZ1ABBq4dM5zjZ3Eli4YmpgNuBuuTNywSFTtl9-F_CEtxjPy-zUwrhizUgc8t6GuLdC4VLz2jZEAIC6mxNYRNCz6-YERm0OP-kr7TtkJVOeGLYGMHBPzjuXacsXXi5Ze13GM6Zf43E6inI2YWiMJw31BqhW3T_tKFLfZML6ZATV3kQ8qB-aj1HH9cTfPAYosIDFHtJ4V-qftyHbzDrSgGw4emx4f7hlqd4Y15gutRbMtLWUZNcHtJGPP5BdZEHMBelCFGOilHUQ-rtxBALGUi0SmuYGamv0MRP0od3JO1VRx5mt_vJAjRT6z9RgypfLosmm1HM5o5vVSvnL_vIrziiwdh-ZLS3_-yswvUzHTWN4LgZB9xAp1v8nelwhuUpMlUU7zlbGKu4dx8ORXh6XNg-t6Wa10K7HA10K8xUeoiP4Z1J2vKyRqVoajI11mq721tUkWY1RleWH0w9JQkF1Rq3A3KQ0FZ1iwiXGSowASGAiLEl-4xhnnjtPlVH9G1dZQBTa8l0r5OqxW6r6VxUfoU-kLyDPgBfHv294V-dGPb7J32jrz7YKAv4R5NNlDus_j-jK_MiqLxsoL7comSpcMM-ytMoTD__mPVRJBr8uWtM3_07G4lSORjhTPTT1gKn5zCnebpnKae_3gscnwHsVUsNFwVetMZZ_oAiUqlaBhDNfwxDRg8wCt-eRwRzxuC9yVlDPnddRDwf9msBysUSqfSoXiZnZmYefLqVy2]--></g></svg>