<?xml version="1.0" encoding="us-ascii" standalone="no"?><svg xmlns="http://www.w3.org/2000/svg" xmlns:xlink="http://www.w3.org/1999/xlink" contentStyleType="text/css" height="188.4px" preserveAspectRatio="none" style="width:2289px;height:188px;background:#FFFFFF;" version="1.1" viewBox="0 0 2289 188" width="2289.6px" zoomAndPan="magnify"><defs/><g><!--class ff_cmdutils--><g id="elem_ff_cmdutils"><rect codeLine="4" fill="#F1F1F1" height="172.3207" id="ff_cmdutils" rx="3" ry="3" style="stroke:#181818;stroke-width:0.6;" width="364.8" x="855" y="8.4"/><ellipse cx="992.1" cy="27.6" fill="#ADD1B2" rx="13.2" ry="13.2" style="stroke:#181818;stroke-width:1.2;"/><path d="M991.725,34.8 Q989.4,34.8 988.05,33.0938 Q986.7,31.3688 986.7,27.825 Q986.7,24.825 988.125,22.8 Q989.55,20.775 992.025,20.775 Q992.6062,20.775 993.2063,20.9063 Q993.6937,21.075 993.9938,21.075 Q994.2375,21.075 994.3313,21.0563 Q994.4437,21.0188 995.0813,20.2125 L995.9625,25.2938 L994.8,26.0062 Q994.2,24.15 993.5062,23.475 Q992.8313,22.8 991.7438,22.8 Q990.3562,22.8 989.5313,24.225 Q988.725,25.6312 988.725,27.825 Q988.725,30.225 989.4187,31.5 Q990.1125,32.775 991.6687,32.775 Q992.775,32.775 993.5437,32.1 Q994.3313,31.4063 994.7438,29.7375 L995.9812,30.3563 Q995.5125,32.4563 994.3875,33.6375 Q993.2625,34.8 991.725,34.8 Z " fill="#000000"/><text fill="#000000" font-family="sans-serif" font-size="16.8" lengthAdjust="spacing" textLength="80.4" x="1016.7" y="35.3807">ff_cmdutils</text><line style="stroke:#181818;stroke-width:0.6;" x1="856.2" x2="1218.6" y1="46.8" y2="46.8"/><line style="stroke:#181818;stroke-width:0.6;" x1="856.2" x2="1218.6" y1="56.4" y2="56.4"/><rect fill="#F24D5C" height="7.2" style="stroke:#C82930;stroke-width:1.2;" width="7.2" x="864.6" y="70.8721"/><text fill="#000000" font-family="sans-serif" font-size="16.8" lengthAdjust="spacing" textLength="213.6" x="879" y="80.4527">check_stream_specifier():int</text><ellipse cx="868.2" cy="97.4162" fill="#84BE84" rx="3.6" ry="3.6" style="stroke:#038048;stroke-width:1.2;"/><text fill="#000000" font-family="sans-serif" font-size="16.8" lengthAdjust="spacing" textLength="243.6" x="879" y="103.3969">filter_codec_opts():AVDictionary</text><ellipse cx="868.2" cy="120.3604" fill="#84BE84" rx="3.6" ry="3.6" style="stroke:#038048;stroke-width:1.2;"/><text fill="#000000" font-family="sans-serif" font-size="16.8" lengthAdjust="spacing" textLength="333.6" x="879" y="126.341">setup_find_stream_info_opts():AVDictionary</text><ellipse cx="868.2" cy="143.3045" fill="#84BE84" rx="3.6" ry="3.6" style="stroke:#038048;stroke-width:1.2;"/><text fill="#000000" font-family="sans-serif" font-size="16.8" lengthAdjust="spacing" textLength="133.2" x="879" y="149.2852">grow_array():void</text><ellipse cx="868.2" cy="166.2486" fill="#84BE84" rx="3.6" ry="3.6" style="stroke:#038048;stroke-width:1.2;"/><text fill="#000000" font-family="sans-serif" font-size="16.8" lengthAdjust="spacing" textLength="259.2" x="879" y="172.2293">get_rotation(AVStream *st):double</text></g><path d="M1262.4,8.4 L1262.4,84.1685 L1122.6,95.6162 L1262.4,93.7685 L1262.4,169.5369 A0,0 0 0 0 1262.4,169.5369 L2281.2,169.5369 A0,0 0 0 0 2281.2,169.5369 L2281.2,20.4 L2269.2,8.4 L1262.4,8.4 A0,0 0 0 0 1262.4,8.4 " fill="#FEFFDD" style="stroke:#181818;stroke-width:0.6;"/><path d="M2269.2,8.4 L2269.2,20.4 L2281.2,20.4 L2269.2,8.4 " fill="#FEFFDD" style="stroke:#181818;stroke-width:0.6;"/><text fill="#000000" font-family="sans-serif" font-size="15.6" lengthAdjust="spacing" textLength="295.2" x="1269.6" y="32.2775">&#26681;&#25454;&#20998;&#31163;&#30340;&#36712;&#36947;&#37197;&#32622;&#23545;&#24212;&#30340;&#32534;&#35299;&#30721;&#20449;&#24687;opts</text><text fill="#000000" font-family="sans-serif" font-size="15.6" lengthAdjust="spacing" textLength="220.8" x="1269.6" y="53.5828">AVDictionary &#30340;&#20027;&#35201;&#29992;&#36884;&#21253;&#25324;&#65306;</text><text fill="#000000" font-family="sans-serif" font-size="15.6" lengthAdjust="spacing" textLength="590.4" x="1269.6" y="74.8881">1.&#37197;&#32622;&#32534;&#35299;&#30721;&#22120;&#21442;&#25968;&#65306;&#29992;&#20110;&#35774;&#32622;&#29305;&#23450;&#20110;&#32534;&#35299;&#30721;&#22120;&#30340;&#21442;&#25968;&#65292;&#22914;&#27604;&#29305;&#29575;&#12289;&#24103;&#29575;&#12289;&#20998;&#36776;&#29575;&#31561;&#12290;</text><text fill="#000000" font-family="sans-serif" font-size="15.6" lengthAdjust="spacing" textLength="621.6" x="1269.6" y="96.1934">2.&#20803;&#25968;&#25454;&#22788;&#29702;&#65306;&#22312;&#22788;&#29702;&#23186;&#20307;&#25991;&#20214;&#26102;&#65292;&#29992;&#20110;&#23384;&#20648;&#21644;&#20256;&#36882;&#20803;&#25968;&#25454;&#20449;&#24687;&#65292;&#22914;&#26631;&#39064;&#12289;&#20316;&#32773;&#12289;&#19987;&#36753;&#31561;&#12290;</text><text fill="#000000" font-family="sans-serif" font-size="15.6" lengthAdjust="spacing" textLength="579.6" x="1269.6" y="117.4986">3.&#36807;&#28388;&#22120;&#36873;&#39033;&#65306;&#22312;&#20351;&#29992; FFmpeg &#30340;&#36807;&#28388;&#22120;&#21151;&#33021;&#26102;&#65292;&#29992;&#20110;&#20256;&#36882;&#36807;&#28388;&#22120;&#29305;&#23450;&#30340;&#37197;&#32622;&#36873;&#39033;&#12290;</text><text fill="#000000" font-family="sans-serif" font-size="15.6" lengthAdjust="spacing" textLength="637.2" x="1269.6" y="138.8039">4.&#26684;&#24335;&#35774;&#32622;&#65306;&#22312;&#35835;&#21462;&#25110;&#20889;&#20837;&#23186;&#20307;&#25991;&#20214;&#26102;&#65292;&#29992;&#20110;&#35774;&#32622;&#29305;&#23450;&#20110;&#26684;&#24335;&#30340;&#21442;&#25968;&#65292;&#22914;&#23481;&#22120;&#26684;&#24335;&#29305;&#23450;&#36873;&#39033;&#12290;</text><text fill="#000000" font-family="sans-serif" font-size="15.6" lengthAdjust="spacing" textLength="993.6" x="1269.6" y="160.1092">5.&#38190;&#20540;&#23545;&#23384;&#20648;&#65306;AVDictionary&#20197;&#38190;&#20540;&#23545;&#30340;&#24418;&#24335;&#23384;&#20648;&#25968;&#25454;&#65292;&#20854;&#20013;&#38190;&#26159;&#19968;&#20010;&#23383;&#31526;&#20018;&#65292;&#20195;&#34920;&#37197;&#32622;&#36873;&#39033;&#30340;&#21517;&#31216;&#65292;&#20540;&#36890;&#24120;&#20063;&#26159;&#19968;&#20010;&#23383;&#31526;&#20018;&#65292;&#34920;&#31034;&#35813;&#36873;&#39033;&#30340;&#20540;&#12290;</text><path d="M7.2,39 L7.2,72.3053 A0,0 0 0 0 7.2,72.3053 L781.2,72.3053 A0,0 0 0 0 781.2,72.3053 L781.2,60.6 L859.8,118.5604 L781.2,51 L781.2,51 L769.2,39 L7.2,39 A0,0 0 0 0 7.2,39 " fill="#FEFFDD" style="stroke:#181818;stroke-width:0.6;"/><path d="M769.2,39 L769.2,51 L781.2,51 L769.2,39 " fill="#FEFFDD" style="stroke:#181818;stroke-width:0.6;"/><text fill="#000000" font-family="sans-serif" font-size="15.6" lengthAdjust="spacing" textLength="748.8" x="14.4" y="62.8775">&#22522;&#20110;&#20849;&#20139;&#30340;&#32534;&#35299;&#30721;&#22120;&#36873;&#39033;&#21644;&#27599;&#20010;&#27969;&#30340;&#29305;&#23450;&#20449;&#24687;&#65292;&#20026;&#23186;&#20307;&#25991;&#20214;&#20013;&#30340;&#27599;&#20010;&#27969;&#21019;&#24314;&#21644;&#37197;&#32622;&#20010;&#24615;&#21270;&#30340;&#32534;&#35299;&#30721;&#22120;&#36873;&#39033;&#38598;&#21512;</text><path d="M7.2,84.3053 L7.2,138.9158 A0,0 0 0 0 7.2,138.9158 L812.4,138.9158 A0,0 0 0 0 812.4,138.9158 L812.4,116.4105 L859.8,164.4486 L812.4,106.8105 L812.4,96.3053 L800.4,84.3053 L7.2,84.3053 A0,0 0 0 0 7.2,84.3053 " fill="#FEFFDD" style="stroke:#181818;stroke-width:0.6;"/><path d="M800.4,84.3053 L800.4,96.3053 L812.4,96.3053 L800.4,84.3053 " fill="#FEFFDD" style="stroke:#181818;stroke-width:0.6;"/><text fill="#000000" font-family="sans-serif" font-size="15.6" lengthAdjust="spacing" textLength="780" x="14.4" y="108.1828">&#36825;&#20010;&#20989;&#25968;&#36890;&#36807;&#26597;&#30475;&#20803;&#25968;&#25454;&#21644;&#26174;&#31034;&#30697;&#38453;&#20013;&#30340;&#20449;&#24687;&#65292;&#25552;&#21462;&#35270;&#39057;&#27969;&#30340;&#26059;&#36716;&#35282;&#24230;&#12290;&#36825;&#23545;&#20110;&#35270;&#39057;&#32534;&#36753;&#21644;&#25773;&#25918;&#36719;&#20214;&#26469;&#35828;&#24456;&#37325;&#35201;&#65292;</text><text fill="#000000" font-family="sans-serif" font-size="15.6" lengthAdjust="spacing" textLength="405.6" x="14.4" y="129.4881">&#22240;&#20026;&#23427;&#20204;&#38656;&#35201;&#26681;&#25454;&#36825;&#20123;&#20449;&#24687;&#26469;&#27491;&#30830;&#22320;&#23450;&#20301;&#21644;&#26174;&#31034;&#35270;&#39057;&#20869;&#23481;&#12290;</text><!--SRC=[VLJBRjj65DthAxXhaY8od3GRxG8K-O40sGeCHTb4954WwHP6KO2oeuThAx9bLPPj1P8VUjIrHBT838eKvO_9p72uwY_qZaQccOUp6tBEFUVSCtT6byICB2p7dyH-M3MCl9vOMifdn9onbit49JMx96L4NN-SKiGLJSp6OlDF8PrEIjdKcg5azDzYWl1Oa5PbwKrIDpHPp2Rrl2mfQKNM7ZnCA3a303yAQILZo5fIKbEob5JpXWvxpr_zh4Y6ekP4RNqEqcLZBPzCAxdKBPMIIwltmbSqzTUag6dYEkp-eYef_bSsaffgY0pvuFchbtCYuP5kF4oarBNN6JdsUooMKmrPq9ILLKDGqz5s4ecld0AhGBeJKXtZIidlk_xHM-eDWy9-KApwtXXR4-mquAS_RTB1cTyje9iJKh1kIwEs1O0XswNzWjyO1cO3xnJ9zkL_qoC6N8vpmf077mvnROFyUGK0m2Fd7HtF661hWiT7y1b50lCjU0VtDuZL09Z_hlp9B61xi5XKIdGsXBK_slfaRZ3H9t5St8GgrjtvMt-t15guFUHhV557tZvfbf5xJGwkWPdRmACMtXZY-WwQTWEp7ZBmnXS6kkNWj0MYo6jJiyWMzZwTxTr9FutJcp9npy5yO6u59nCkZRmRK15UlCZcvHKMM8Z2VtJefXSrmlL300y6IdYGd7MXzbESTATuMkCHSYbgkRZM99KcBXtYOk- -Thz8dVDyaJSUJy30OckE_4pzMJneZB4vPSCo3myCH0S3kRqGm9YzK-3XI1ujKobU8ti4CDAoa6qY-mAF3lpBFhB_XLtadj6JORHnnhDRzGTpX-OqC8-mRQD9vvlbKEkVEzJgtTMQKsPUpgK4TbiMToOZfx- -Cj-vjwnvt77Oq1J_GSxVqNiI7ZnC4h5gu8XyB300J_fsc93jH4y6CW1CYCULO-mwmC1RPp_D0TvfVbCeE2xXtSfTJ_Ut57r5M0_qvf0bLlRWE219DdATdj_Ulhizq4Dh1XdwdR-2raVkCko1r7PXqkYW59pkyIR9mJRrBkcWZfq-v0pySFHisEOOPdssnpZh8zAOKSzYC_c-HwqFU5O9obLuGe1sdkvnboKqtaJkPT0sOOC_LionSymTG2KPdVadOzo-Oj5wrT0kryEb8anmzBp_1m00]--></g></svg>