<?xml version="1.0" encoding="us-ascii" standalone="no"?><svg xmlns="http://www.w3.org/2000/svg" xmlns:xlink="http://www.w3.org/1999/xlink" contentStyleType="text/css" height="947px" preserveAspectRatio="none" style="width:1659px;height:947px;background:#FFFFFF;" version="1.1" viewBox="0 0 1659 947" width="1659px" zoomAndPan="magnify"><defs/><g><line style="stroke:#181818;stroke-width:0.5;stroke-dasharray:5.0,5.0;" x1="24" x2="24" y1="84.1201" y2="863.5063"/><line style="stroke:#181818;stroke-width:0.5;stroke-dasharray:5.0,5.0;" x1="139" x2="139" y1="84.1201" y2="863.5063"/><line style="stroke:#181818;stroke-width:0.5;stroke-dasharray:5.0,5.0;" x1="346" x2="346" y1="84.1201" y2="863.5063"/><line style="stroke:#181818;stroke-width:0.5;stroke-dasharray:5.0,5.0;" x1="504" x2="504" y1="84.1201" y2="863.5063"/><line style="stroke:#181818;stroke-width:0.5;stroke-dasharray:5.0,5.0;" x1="662" x2="662" y1="84.1201" y2="863.5063"/><line style="stroke:#181818;stroke-width:0.5;stroke-dasharray:5.0,5.0;" x1="928" x2="928" y1="84.1201" y2="863.5063"/><line style="stroke:#181818;stroke-width:0.5;stroke-dasharray:5.0,5.0;" x1="1063" x2="1063" y1="84.1201" y2="863.5063"/><line style="stroke:#181818;stroke-width:0.5;stroke-dasharray:5.0,5.0;" x1="1180" x2="1180" y1="84.1201" y2="863.5063"/><line style="stroke:#181818;stroke-width:0.5;stroke-dasharray:5.0,5.0;" x1="1322" x2="1322" y1="84.1201" y2="863.5063"/><line style="stroke:#181818;stroke-width:0.5;stroke-dasharray:5.0,5.0;" x1="1534" x2="1534" y1="84.1201" y2="863.5063"/><text fill="#000000" font-family="sans-serif" font-size="14" lengthAdjust="spacing" textLength="33" x="5" y="81.0439">Actor</text><ellipse cx="24.5" cy="13.5" fill="#E2E2F0" rx="8" ry="8" style="stroke:#181818;stroke-width:0.5;"/><path d="M24.5,21.5 L24.5,48.5 M11.5,29.5 L37.5,29.5 M24.5,48.5 L11.5,63.5 M24.5,48.5 L37.5,63.5 " fill="none" style="stroke:#181818;stroke-width:0.5;"/><text fill="#000000" font-family="sans-serif" font-size="14" lengthAdjust="spacing" textLength="33" x="5" y="878.5503">Actor</text><ellipse cx="24.5" cy="890.1265" fill="#E2E2F0" rx="8" ry="8" style="stroke:#181818;stroke-width:0.5;"/><path d="M24.5,898.1265 L24.5,925.1265 M11.5,906.1265 L37.5,906.1265 M24.5,925.1265 L11.5,940.1265 M24.5,925.1265 L37.5,940.1265 " fill="none" style="stroke:#181818;stroke-width:0.5;"/><rect fill="#E2E2F0" height="33.1201" rx="2.5" ry="2.5" style="stroke:#181818;stroke-width:0.5;" width="105" x="87" y="50"/><text fill="#000000" font-family="sans-serif" font-size="14" lengthAdjust="spacing" textLength="91" x="94" y="73.0439">IjkMediaPlayer</text><rect fill="#E2E2F0" height="33.1201" rx="2.5" ry="2.5" style="stroke:#181818;stroke-width:0.5;" width="105" x="87" y="862.5063"/><text fill="#000000" font-family="sans-serif" font-size="14" lengthAdjust="spacing" textLength="91" x="94" y="885.5503">IjkMediaPlayer</text><rect fill="#E2E2F0" height="33.1201" rx="2.5" ry="2.5" style="stroke:#181818;stroke-width:0.5;" width="99" x="297" y="50"/><text fill="#000000" font-family="sans-serif" font-size="14" lengthAdjust="spacing" textLength="85" x="304" y="73.0439">ijkplayer_jni.c</text><rect fill="#E2E2F0" height="33.1201" rx="2.5" ry="2.5" style="stroke:#181818;stroke-width:0.5;" width="99" x="297" y="862.5063"/><text fill="#000000" font-family="sans-serif" font-size="14" lengthAdjust="spacing" textLength="85" x="304" y="885.5503">ijkplayer_jni.c</text><rect fill="#E2E2F0" height="33.1201" rx="2.5" ry="2.5" style="stroke:#181818;stroke-width:0.5;" width="77" x="466" y="50"/><text fill="#000000" font-family="sans-serif" font-size="14" lengthAdjust="spacing" textLength="63" x="473" y="73.0439">ijkplayer.c</text><rect fill="#E2E2F0" height="33.1201" rx="2.5" ry="2.5" style="stroke:#181818;stroke-width:0.5;" width="77" x="466" y="862.5063"/><text fill="#000000" font-family="sans-serif" font-size="14" lengthAdjust="spacing" textLength="63" x="473" y="885.5503">ijkplayer.c</text><rect fill="#E2E2F0" height="33.1201" rx="2.5" ry="2.5" style="stroke:#181818;stroke-width:0.5;" width="75" x="625" y="50"/><text fill="#000000" font-family="sans-serif" font-size="14" lengthAdjust="spacing" textLength="61" x="632" y="73.0439">ff_ffplay.c</text><rect fill="#E2E2F0" height="33.1201" rx="2.5" ry="2.5" style="stroke:#181818;stroke-width:0.5;" width="75" x="625" y="862.5063"/><text fill="#000000" font-family="sans-serif" font-size="14" lengthAdjust="spacing" textLength="61" x="632" y="885.5503">ff_ffplay.c</text><rect fill="#E2E2F0" height="33.1201" rx="2.5" ry="2.5" style="stroke:#181818;stroke-width:0.5;" width="133" x="862" y="50"/><text fill="#000000" font-family="sans-serif" font-size="14" lengthAdjust="spacing" textLength="119" x="869" y="73.0439">ijkplayer_android.c</text><rect fill="#E2E2F0" height="33.1201" rx="2.5" ry="2.5" style="stroke:#181818;stroke-width:0.5;" width="133" x="862" y="862.5063"/><text fill="#000000" font-family="sans-serif" font-size="14" lengthAdjust="spacing" textLength="119" x="869" y="885.5503">ijkplayer_android.c</text><rect fill="#E2E2F0" height="33.1201" rx="2.5" ry="2.5" style="stroke:#181818;stroke-width:0.5;" width="116" x="1005" y="50"/><text fill="#000000" font-family="sans-serif" font-size="14" lengthAdjust="spacing" textLength="102" x="1012" y="73.0439">ffpipe_android.c</text><rect fill="#E2E2F0" height="33.1201" rx="2.5" ry="2.5" style="stroke:#181818;stroke-width:0.5;" width="116" x="1005" y="862.5063"/><text fill="#000000" font-family="sans-serif" font-size="14" lengthAdjust="spacing" textLength="102" x="1012" y="885.5503">ffpipe_android.c</text><rect fill="#E2E2F0" height="33.1201" rx="2.5" ry="2.5" style="stroke:#181818;stroke-width:0.5;" width="98" x="1131" y="50"/><text fill="#000000" font-family="sans-serif" font-size="14" lengthAdjust="spacing" textLength="84" x="1138" y="73.0439">ff_ffpipeline.c</text><rect fill="#E2E2F0" height="33.1201" rx="2.5" ry="2.5" style="stroke:#181818;stroke-width:0.5;" width="98" x="1131" y="862.5063"/><text fill="#000000" font-family="sans-serif" font-size="14" lengthAdjust="spacing" textLength="84" x="1138" y="885.5503">ff_ffpipeline.c</text><rect fill="#E2E2F0" height="33.1201" rx="2.5" ry="2.5" style="stroke:#181818;stroke-width:0.5;" width="166" x="1239" y="50"/><text fill="#000000" font-family="sans-serif" font-size="14" lengthAdjust="spacing" textLength="152" x="1246" y="73.0439">ffpipelinef_ffplay_vdec.c</text><rect fill="#E2E2F0" height="33.1201" rx="2.5" ry="2.5" style="stroke:#181818;stroke-width:0.5;" width="166" x="1239" y="862.5063"/><text fill="#000000" font-family="sans-serif" font-size="14" lengthAdjust="spacing" textLength="152" x="1246" y="885.5503">ffpipelinef_ffplay_vdec.c</text><rect fill="#E2E2F0" height="33.1201" rx="2.5" ry="2.5" style="stroke:#181818;stroke-width:0.5;" width="238" x="1415" y="50"/><text fill="#000000" font-family="sans-serif" font-size="14" lengthAdjust="spacing" textLength="224" x="1422" y="73.0439">ijksdl_vout_android_nativewindow.c</text><rect fill="#E2E2F0" height="33.1201" rx="2.5" ry="2.5" style="stroke:#181818;stroke-width:0.5;" width="238" x="1415" y="862.5063"/><text fill="#000000" font-family="sans-serif" font-size="14" lengthAdjust="spacing" textLength="224" x="1422" y="885.5503">ijksdl_vout_android_nativewindow.c</text><polygon fill="#181818" points="127.5,113.8745,137.5,117.8745,127.5,121.8745,131.5,117.8745" style="stroke:#181818;stroke-width:1.0;"/><line style="stroke:#181818;stroke-width:1.0;" x1="24.5" x2="133.5" y1="117.8745" y2="117.8745"/><text fill="#000000" font-family="sans-serif" font-size="13" font-weight="bold" lengthAdjust="spacing" textLength="7" x="31.5" y="113.0181">1</text><text fill="#000000" font-family="sans-serif" font-size="13" lengthAdjust="spacing" textLength="80" x="42.5" y="113.0181">prepareAsync</text><polygon fill="#181818" points="334.5,145.6289,344.5,149.6289,334.5,153.6289,338.5,149.6289" style="stroke:#181818;stroke-width:1.0;"/><line style="stroke:#181818;stroke-width:1.0;" x1="139.5" x2="340.5" y1="149.6289" y2="149.6289"/><text fill="#000000" font-family="sans-serif" font-size="13" font-weight="bold" lengthAdjust="spacing" textLength="7" x="146.5" y="144.7725">2</text><text fill="#000000" font-family="sans-serif" font-size="13" lengthAdjust="spacing" textLength="172" x="157.5" y="144.7725">IjkMediaPlayer_prepareAsync</text><polygon fill="#181818" points="492.5,177.3833,502.5,181.3833,492.5,185.3833,496.5,181.3833" style="stroke:#181818;stroke-width:1.0;"/><line style="stroke:#181818;stroke-width:1.0;" x1="346.5" x2="498.5" y1="181.3833" y2="181.3833"/><text fill="#000000" font-family="sans-serif" font-size="13" font-weight="bold" lengthAdjust="spacing" textLength="7" x="353.5" y="176.5269">3</text><text fill="#000000" font-family="sans-serif" font-size="13" lengthAdjust="spacing" textLength="123" x="364.5" y="176.5269">ijkmp_prepare_async</text><line style="stroke:#181818;stroke-width:1.0;" x1="504.5" x2="546.5" y1="227.3921" y2="227.3921"/><line style="stroke:#181818;stroke-width:1.0;" x1="546.5" x2="546.5" y1="227.3921" y2="240.3921"/><line style="stroke:#181818;stroke-width:1.0;" x1="505.5" x2="546.5" y1="240.3921" y2="240.3921"/><polygon fill="#181818" points="515.5,236.3921,505.5,240.3921,515.5,244.3921,511.5,240.3921" style="stroke:#181818;stroke-width:1.0;"/><text fill="#000000" font-family="sans-serif" font-size="13" font-weight="bold" lengthAdjust="spacing" textLength="7" x="511.5" y="222.5356">4</text><text fill="#000000" font-family="sans-serif" font-size="13" lengthAdjust="spacing" textLength="133" x="522.5" y="222.5356">ijkmp_prepare_async_l</text><path d="M259,194.3833 L259,257.3833 L499,257.3833 L499,204.3833 L489,194.3833 L259,194.3833 " fill="#FEFFDD" style="stroke:#181818;stroke-width:0.5;"/><path d="M489,194.3833 L489,204.3833 L499,204.3833 L489,194.3833 " fill="#FEFFDD" style="stroke:#181818;stroke-width:0.5;"/><text fill="#000000" font-family="sans-serif" font-size="13" lengthAdjust="spacing" textLength="219" x="265" y="214.2813">1.ijkmp_change_state_l:&#36890;&#30693;&#24320;&#22987;&#20934;&#22791;</text><text fill="#000000" font-family="sans-serif" font-size="13" lengthAdjust="spacing" textLength="63" x="269" y="232.0356">2.&#21457;&#36865;&#28040;&#24687;</text><text fill="#000000" font-family="sans-serif" font-size="13" lengthAdjust="spacing" textLength="126" x="269" y="249.79">3.ffp_prepare_async_l</text><polygon fill="#181818" points="650.5,294.2781,660.5,298.2781,650.5,302.2781,654.5,298.2781" style="stroke:#181818;stroke-width:1.0;"/><line style="stroke:#181818;stroke-width:1.0;" x1="504.5" x2="656.5" y1="298.2781" y2="298.2781"/><text fill="#000000" font-family="sans-serif" font-size="13" font-weight="bold" lengthAdjust="spacing" textLength="7" x="511.5" y="293.4216">5</text><text fill="#000000" font-family="sans-serif" font-size="13" lengthAdjust="spacing" textLength="115" x="522.5" y="293.4216">ffp_prepare_async_l</text><path d="M667,267.6465 L667,312.6465 L846,312.6465 L846,277.6465 L836,267.6465 L667,267.6465 " fill="#FEFFDD" style="stroke:#181818;stroke-width:0.5;"/><path d="M836,267.6465 L836,277.6465 L846,277.6465 L836,267.6465 " fill="#FEFFDD" style="stroke:#181818;stroke-width:0.5;"/><text fill="#000000" font-family="sans-serif" font-size="13" lengthAdjust="spacing" textLength="158" x="673" y="287.5444">1.&#25171;&#21360;&#29256;&#26412;&#20449;&#24687;,&#37197;&#32622;&#20449;&#24687;&#31561;</text><text fill="#000000" font-family="sans-serif" font-size="13" lengthAdjust="spacing" textLength="86" x="677" y="305.2988">2.stream_open</text><line style="stroke:#181818;stroke-width:1.0;" x1="662.5" x2="704.5" y1="391.6729" y2="391.6729"/><line style="stroke:#181818;stroke-width:1.0;" x1="704.5" x2="704.5" y1="391.6729" y2="404.6729"/><line style="stroke:#181818;stroke-width:1.0;" x1="663.5" x2="704.5" y1="404.6729" y2="404.6729"/><polygon fill="#181818" points="673.5,400.6729,663.5,404.6729,673.5,408.6729,669.5,404.6729" style="stroke:#181818;stroke-width:1.0;"/><text fill="#000000" font-family="sans-serif" font-size="13" font-weight="bold" lengthAdjust="spacing" textLength="7" x="669.5" y="386.8164">6</text><text fill="#FF0000" font-family="sans-serif" font-size="13" lengthAdjust="spacing" textLength="75" x="680.5" y="386.8164">stream_open</text><path d="M298,323.1553 L298,457.1553 L657,457.1553 L657,333.1553 L647,323.1553 L298,323.1553 " fill="#FEFFDD" style="stroke:#181818;stroke-width:0.5;"/><path d="M647,323.1553 L647,333.1553 L657,333.1553 L647,323.1553 " fill="#FEFFDD" style="stroke:#181818;stroke-width:0.5;"/><text fill="#000000" font-family="sans-serif" font-size="13" lengthAdjust="spacing" textLength="141" x="304" y="343.0532">1.ijk_soundtouch_create</text><text fill="#000000" font-family="sans-serif" font-size="13" lengthAdjust="spacing" textLength="217" x="308" y="360.8076">2.frame_queue_init:&#21021;&#22987;&#21270;&#35299;&#30721;&#24103;&#38431;&#21015;</text><text fill="#000000" font-family="sans-serif" font-size="13" lengthAdjust="spacing" textLength="250" x="308" y="378.562">3.packet_queue_init:&#21021;&#22987;&#21270;&#26410;&#35299;&#30721;&#30340;&#21253;&#38431;&#21015;</text><text fill="#000000" font-family="sans-serif" font-size="13" lengthAdjust="spacing" textLength="135" x="308" y="396.3164">4.init_clock:&#21021;&#22987;&#21270;&#21516;&#27493;</text><text fill="#000000" font-family="sans-serif" font-size="13" lengthAdjust="spacing" textLength="133" x="308" y="414.0708">5.is-&gt;video_refresh_tid:</text><text fill="#FF0000" font-family="sans-serif" font-size="13" lengthAdjust="spacing" textLength="196" x="441" y="414.0708">video_refresh_thread&#38899;&#35805;&#21516;&#27493;&#32447;&#31243;</text><text fill="#000000" font-family="sans-serif" font-size="13" lengthAdjust="spacing" textLength="83" x="308" y="431.8252">6.is-&gt;read_tid:</text><text fill="#FF0000" font-family="sans-serif" font-size="13" lengthAdjust="spacing" textLength="120" x="391" y="431.8252">read_thread&#35299;&#30721;&#32447;&#31243;</text><text fill="#000000" font-family="sans-serif" font-size="13" lengthAdjust="spacing" textLength="11" x="308" y="449.5796">7.</text><text fill="#FF0000" font-family="sans-serif" font-size="13" lengthAdjust="spacing" textLength="323" x="319" y="449.5796">decoder_init-&gt;ffpipeline_init_video_decoder&#21021;&#22987;&#21270;&#35299;&#30721;&#22120;</text><line style="stroke:#181818;stroke-width:1.0;" x1="662.5" x2="704.5" y1="535.9536" y2="535.9536"/><line style="stroke:#181818;stroke-width:1.0;" x1="704.5" x2="704.5" y1="535.9536" y2="548.9536"/><line style="stroke:#181818;stroke-width:1.0;" x1="663.5" x2="704.5" y1="548.9536" y2="548.9536"/><polygon fill="#181818" points="673.5,544.9536,663.5,548.9536,673.5,552.9536,669.5,548.9536" style="stroke:#181818;stroke-width:1.0;"/><text fill="#000000" font-family="sans-serif" font-size="13" font-weight="bold" lengthAdjust="spacing" textLength="7" x="669.5" y="531.0972">7</text><text fill="#FF0000" font-family="sans-serif" font-size="13" lengthAdjust="spacing" textLength="68" x="680.5" y="531.0972">read_thread</text><path d="M760,467.436 L760,601.436 L1537,601.436 L1537,477.436 L1527,467.436 L760,467.436 " fill="#FEFFDD" style="stroke:#181818;stroke-width:0.5;"/><path d="M1527,467.436 L1527,477.436 L1537,477.436 L1527,467.436 " fill="#FEFFDD" style="stroke:#181818;stroke-width:0.5;"/><text fill="#000000" font-family="sans-serif" font-size="13" lengthAdjust="spacing" textLength="143" x="766" y="487.334">1.avformat_alloc_context</text><text fill="#000000" font-family="sans-serif" font-size="13" lengthAdjust="spacing" textLength="675" x="770" y="505.0884">2.avformat_open_input:&#25171;&#24320;&#36755;&#20837;&#27969;&#65292;&#24182;&#35835;&#21462;&#25991;&#20214;&#22836;&#37096;&#65292;&#35299;&#30721;&#22120;&#36824;&#26410;&#25171;&#24320;&#12290;&#20027;&#35201;&#20316;&#29992;&#26159;&#25506;&#27979;&#27969;&#30340;&#21327;&#35758;&#65292;&#22914;http&#36824;&#26159;rtmp&#31561;</text><text fill="#000000" font-family="sans-serif" font-size="13" lengthAdjust="spacing" textLength="402" x="770" y="522.8428">3.avformat_find_stream_info:&#25506;&#27979;&#25991;&#20214;&#23553;&#35013;&#26684;&#24335;,&#38899;&#35270;&#39057;&#32534;&#30721;&#21442;&#25968;&#31561;&#20449;&#24687;</text><text fill="#000000" font-family="sans-serif" font-size="13" lengthAdjust="spacing" textLength="354" x="770" y="540.5972">4.av_find_best_stream:&#26681;&#25454;AVFormatContext&#65292;&#25214;&#21040;&#26368;&#20339;&#30340;&#27969;</text><text fill="#000000" font-family="sans-serif" font-size="13" lengthAdjust="spacing" textLength="11" x="770" y="558.3516">5.</text><text fill="#FF0000" font-family="sans-serif" font-size="13" lengthAdjust="spacing" textLength="741" x="781" y="558.3516">stream_component_open:&#20869;&#37096;&#20998;&#21035;&#24320;&#21551;audio,video,subtitle&#30340;&#35299;&#30721;&#22120;&#30340;&#32447;&#31243;&#65292;&#24320;&#22987;&#21508;&#33258;&#30340;&#35299;&#30721;&#30340;&#24037;&#20316;&#12290;&#35299;&#30721;&#32447;&#31243;&#20013;&#20998;&#26512;&#36825;&#37324;&#30340;&#20869;&#23481;</text><text fill="#000000" font-family="sans-serif" font-size="13" lengthAdjust="spacing" textLength="199" x="770" y="576.106">6.avformat_seek_file:&#36339;&#21040;&#31934;&#20934;&#20301;&#32622;</text><text fill="#000000" font-family="sans-serif" font-size="13" lengthAdjust="spacing" textLength="11" x="770" y="593.8604">7.</text><text fill="#FF0000" font-family="sans-serif" font-size="13" lengthAdjust="spacing" textLength="427" x="781" y="593.8604">av_read_frame-&gt;packet_queue_put&#25226;&#32593;&#32476;&#35835;&#21462;&#21040;&#24182;&#35299;&#23553;&#35013;&#21040;&#30340;pkt&#21253;&#20837;&#38431;&#21015;</text><line style="stroke:#181818;stroke-width:1.0;" x1="662.5" x2="704.5" y1="635.8484" y2="635.8484"/><line style="stroke:#181818;stroke-width:1.0;" x1="704.5" x2="704.5" y1="635.8484" y2="648.8484"/><line style="stroke:#181818;stroke-width:1.0;" x1="663.5" x2="704.5" y1="648.8484" y2="648.8484"/><polygon fill="#181818" points="673.5,644.8484,663.5,648.8484,673.5,652.8484,669.5,648.8484" style="stroke:#181818;stroke-width:1.0;"/><text fill="#000000" font-family="sans-serif" font-size="13" font-weight="bold" lengthAdjust="spacing" textLength="7" x="669.5" y="630.9919">8</text><text fill="#FF0000" font-family="sans-serif" font-size="13" lengthAdjust="spacing" textLength="241" x="680.5" y="630.9919">stream_component_open:&#35299;&#30721;&#32447;&#31243;&#21021;&#22987;&#21270;</text><path d="M274,611.7168 L274,656.7168 L657,656.7168 L657,621.7168 L647,611.7168 L274,611.7168 " fill="#FEFFDD" style="stroke:#181818;stroke-width:0.5;"/><path d="M647,611.7168 L647,621.7168 L657,621.7168 L647,611.7168 " fill="#FEFFDD" style="stroke:#181818;stroke-width:0.5;"/><text fill="#000000" font-family="sans-serif" font-size="13" lengthAdjust="spacing" textLength="207" x="280" y="631.6147">1.avcodec_find_decoder:&#25214;&#21040;&#35299;&#30721;&#22120;</text><text fill="#000000" font-family="sans-serif" font-size="13" lengthAdjust="spacing" textLength="358" x="284" y="649.3691">2.decoder_init-&gt;ffpipeline_open_video_decoder-&gt;decoder_start</text><line style="stroke:#181818;stroke-width:1.0;" x1="662.5" x2="704.5" y1="700.2344" y2="700.2344"/><line style="stroke:#181818;stroke-width:1.0;" x1="704.5" x2="704.5" y1="700.2344" y2="713.2344"/><line style="stroke:#181818;stroke-width:1.0;" x1="663.5" x2="704.5" y1="713.2344" y2="713.2344"/><polygon fill="#181818" points="673.5,709.2344,663.5,713.2344,673.5,717.2344,669.5,713.2344" style="stroke:#181818;stroke-width:1.0;"/><text fill="#000000" font-family="sans-serif" font-size="13" font-weight="bold" lengthAdjust="spacing" textLength="7" x="669.5" y="695.3779">9</text><text fill="#FF0000" font-family="sans-serif" font-size="13" lengthAdjust="spacing" textLength="165" x="680.5" y="695.3779">ffplay_video_thread:&#35299;&#30721;&#32447;&#31243;</text><path d="M857,667.2256 L857,730.2256 L1144,730.2256 L1144,677.2256 L1134,667.2256 L857,667.2256 " fill="#FEFFDD" style="stroke:#181818;stroke-width:0.5;"/><path d="M1134,667.2256 L1134,677.2256 L1144,677.2256 L1134,667.2256 " fill="#FEFFDD" style="stroke:#181818;stroke-width:0.5;"/><text fill="#000000" font-family="sans-serif" font-size="13" lengthAdjust="spacing" textLength="189" x="863" y="687.1235">1.av_guess_frame_rate:&#20272;&#31639;&#24103;&#29575;</text><text fill="#000000" font-family="sans-serif" font-size="13" lengthAdjust="spacing" textLength="11" x="867" y="704.8779">2.</text><text fill="#FF0000" font-family="sans-serif" font-size="13" lengthAdjust="spacing" textLength="227" x="878" y="704.8779">get_video_frame:&#35299;&#30721;&#33719;&#21462;&#19968;&#24103;&#35270;&#39057;&#30011;&#38754;</text><text fill="#000000" font-family="sans-serif" font-size="13" lengthAdjust="spacing" textLength="11" x="867" y="722.6323">3.</text><text fill="#FF0000" font-family="sans-serif" font-size="13" lengthAdjust="spacing" textLength="251" x="878" y="722.6323">queue_picture:&#23558;&#35299;&#30721;&#21518;&#24103;&#23384;&#20837;FrameQueue</text><line style="stroke:#181818;stroke-width:1.0;" x1="662.5" x2="704.5" y1="773.4976" y2="773.4976"/><line style="stroke:#181818;stroke-width:1.0;" x1="704.5" x2="704.5" y1="773.4976" y2="786.4976"/><line style="stroke:#181818;stroke-width:1.0;" x1="663.5" x2="704.5" y1="786.4976" y2="786.4976"/><polygon fill="#181818" points="673.5,782.4976,663.5,786.4976,673.5,790.4976,669.5,786.4976" style="stroke:#181818;stroke-width:1.0;"/><text fill="#000000" font-family="sans-serif" font-size="13" font-weight="bold" lengthAdjust="spacing" textLength="14" x="669.5" y="768.6411">10</text><text fill="#FF0000" font-family="sans-serif" font-size="13" lengthAdjust="spacing" textLength="201" x="687.5" y="768.6411">get_video_frame:&#35299;&#30721;&#33719;&#21462;&#19968;&#24103;&#30011;&#38754;</text><path d="M900,740.4888 L900,803.4888 L1434,803.4888 L1434,750.4888 L1424,740.4888 L900,740.4888 " fill="#FEFFDD" style="stroke:#181818;stroke-width:0.5;"/><path d="M1424,740.4888 L1424,750.4888 L1434,750.4888 L1424,740.4888 " fill="#FEFFDD" style="stroke:#181818;stroke-width:0.5;"/><text fill="#000000" font-family="sans-serif" font-size="13" lengthAdjust="spacing" textLength="214" x="906" y="760.3867">1.decoder_decode_frame:&#35299;&#20986;&#24403;&#21069;&#24103;</text><text fill="#000000" font-family="sans-serif" font-size="13" lengthAdjust="spacing" textLength="11" x="910" y="778.1411">2.</text><text fill="#FF0000" font-family="sans-serif" font-size="13" lengthAdjust="spacing" textLength="227" x="921" y="778.1411">get_video_frame:&#35299;&#30721;&#33719;&#21462;&#19968;&#24103;&#35270;&#39057;&#30011;&#38754;</text><text fill="#000000" font-family="sans-serif" font-size="13" lengthAdjust="spacing" textLength="509" x="910" y="795.8955">3.&#20002;&#24103;&#31639;&#27861;:&#24403;&#36830;&#32493;&#30340;&#24103;&#20002;&#24323;&#25968;&#37327;&#36229;&#36807;&#20102;&#38408;&#20540;&#26102;&#65292;&#20250;&#37319;&#21462;&#25514;&#26045;&#26469;&#20943;&#23569;&#24103;&#20002;&#24323;&#24182;&#25552;&#39640;&#25773;&#25918;&#36136;&#37327;</text><line style="stroke:#181818;stroke-width:1.0;" x1="662.5" x2="704.5" y1="832.5063" y2="832.5063"/><line style="stroke:#181818;stroke-width:1.0;" x1="704.5" x2="704.5" y1="832.5063" y2="845.5063"/><line style="stroke:#181818;stroke-width:1.0;" x1="663.5" x2="704.5" y1="845.5063" y2="845.5063"/><polygon fill="#181818" points="673.5,841.5063,663.5,845.5063,673.5,849.5063,669.5,845.5063" style="stroke:#181818;stroke-width:1.0;"/><text fill="#000000" font-family="sans-serif" font-size="13" font-weight="bold" lengthAdjust="spacing" textLength="14" x="669.5" y="827.6499">11</text><text fill="#FF0000" font-family="sans-serif" font-size="13" lengthAdjust="spacing" textLength="208" x="687.5" y="827.6499">queue_picture:&#23558;frame&#25918;&#20837;&#38431;&#21015;&#20043;&#20013;</text><path d="M907,817.252 L907,844.252 L1048,844.252 L1048,827.252 L1038,817.252 L907,817.252 " fill="#FEFFDD" style="stroke:#181818;stroke-width:0.5;"/><path d="M1038,817.252 L1038,827.252 L1048,827.252 L1038,817.252 " fill="#FEFFDD" style="stroke:#181818;stroke-width:0.5;"/><text fill="#000000" font-family="sans-serif" font-size="13" lengthAdjust="spacing" textLength="120" x="913" y="837.1499">1.frame_queue_push</text><!--SRC=[hLLTKzj657tth_1RNy1jcdxCQ3BCC9rXffssaxwaBvtH26cD1RAaIYkdUJD9_47uC2G470f9IaBC9CLuGa8WsF1Zgbr9J_qBkRih6zauD0zz0Nltt7FlddlFjQig1afVoNoH-Ynit0_dNfC_J_tJ-PIYOij9Z_E_YfjM3HsPE6Kh3jPLtLPCdFv-UkOdfEdATKEvXJZ8vf_wGFhqZ3YLfqqzepAKgM2zW7umzUkNm9FG8RXiLivc6LBWnEUF95PCpR5qBSauBew64jkwZIw9cPXWW275mAcXcoWP8h0_mkcG70pSVOLSq90w40d7D-1qy56kPiW5oyFT4cKHS5CtDUkce018NEpF_EvNVfTAAHwsJ2y_2KyMxKoFZiKzasm7GI8qxjuo8QNeADmEz4hgxxdS5pM0FG-FOw7ulDqDaPL4pAS7o4RAj31A6oYBfIiPWL1pYZc5P1Sh6Cc651KtWYSxf5qaZNbIAPFdbT_Cz9SPKbk9YhFqi4fdz-7WQWQalq1-eI3H7saObXVYw5CvLWcTUq0MMy5SbMx-xP_z1Jb6ej9Yq6cABy7U72_2nGvIyh9b8pEL4jo9BDTKox0SoK7QM09uxND-F3RuSjcrF5F3bgVcP1NG6F4KMKV98_bt3tb8raqTIwIwnPHOM0iRpuAdi-Ie4TMVaEew5y5Mr1c4XyBfvaiH4MpS9GkbNj1N6OQJLSDIPyxHP7c1xkt0zTSPtHqTA-WQicG7PHtavcIiQyd73Lpce7WjUd8Gxcy9bk3zMR0xttqtS7x3EHbia4gSSOQusC7ORpC9E1ZAqc1msGj6nywDo0zaKLUC6PJjqMwl4PTsBb5HV-Uwew8KifQJLy311aWegvQ9qH-OzwvtnVeEDTaUbjXajOlXwGDIsg5lP_zjBv3Zmt3_XDJMw5h5Fpaapzz4TtRXl5TeU5Q7ved0Vugt_QEJyCMitzaCLdTfVPykRTEtyq35-hfO2vjDnldYTWvZcqNMznsSjyN4NZqlAGjRH8x7KZUpbXJpY1fQi-6p4dtQ9ktQ26jbennjhmJjDLPGxJPzs08-OGK-GKf1y4qY5yUa4drwJ1URupScUBxlX2nG6fqx9TKMtIpwdGCe6GhdKtRHBAgLjoqJzXgNJoBb4kX2gcLIVSMsmVA-uccwDSAxFE9warZ71WB6dcxmMOmF4qJiZ-MxOULb3yCKUxS3IeAgoN7pZ_OW3tsy79uzYYeB35OkaUPntmZtb7GHce7d6qWAtnt0quBNfx2d_0vR5uC32qBnWUAk7XthiojC1xrtB-Yi12UROY20Z0r7uvde1-FUk6lFOB0lJ8zmyATDyN19as_k-MFeVb8Ap4Igw7BiA4bqiYSt7_cFEf9ReC-HeptxmgftyEKFwFwmSW9XHsdOXXZqfZpb8TSLUiiEB5N9RxU2vZgipM19_98aiaoXxjRW0N66SEaTDCC_Aa9Gx8JLasXhEp4ELvCiSJjr5NiEaaYh74kql0G4PAyElPjWzBymtAVrxxyBwo-fNuQkpkB_EGMfl2UT1sHk4UB_HodyesrMK7ET7ZoK845uzZWusMCkEcgmk_OTM21HfHOUbiApYl- -7DMhfDYcwuTWLB-z4LKgR1iklQHh7RgrGoerqbhfnO8ZQ6qvUbMdz_VewcduPXUeBbVlGaFuao2uvoB_c9b-k7h9Ns3RStEfr0S0]--></g></svg>